<svg width="124" height="31" viewBox="0 0 124 31" fill="none" xmlns="http://www.w3.org/2000/svg">
<path d="M1.22266 13.9785L1.82507 13.4688" stroke="#FF1A1A" stroke-width="1.5" stroke-miterlimit="10" stroke-linecap="round"/>
<path d="M1.8252 13.4688L2.42761 9.92657" stroke="#FF1A1A" stroke-width="1.5" stroke-miterlimit="10" stroke-linecap="round"/>
<path d="M2.42773 9.92657L3.03014 10.2463" stroke="#FF1A1A" stroke-width="1.5" stroke-miterlimit="10" stroke-linecap="round"/>
<path d="M3.02979 10.2466L3.63219 8.20563" stroke="#FF1A1A" stroke-width="1.5" stroke-miterlimit="10" stroke-linecap="round"/>
<path d="M3.63232 8.20563L4.23473 9.62821" stroke="#FF1A1A" stroke-width="1.5" stroke-miterlimit="10" stroke-linecap="round"/>
<path d="M4.23486 9.62799L4.83727 11.1776" stroke="#FF1A1A" stroke-width="1.5" stroke-miterlimit="10" stroke-linecap="round"/>
<path d="M4.83691 11.1776L5.43932 10.5975" stroke="#FF1A1A" stroke-width="1.5" stroke-miterlimit="10" stroke-linecap="round"/>
<path d="M5.43945 10.5974L6.04186 7.76544" stroke="#FF1A1A" stroke-width="1.5" stroke-miterlimit="10" stroke-linecap="round"/>
<path d="M6.04199 7.76555L6.6444 7.14532" stroke="#FF1A1A" stroke-width="1.5" stroke-miterlimit="10" stroke-linecap="round"/>
<path d="M6.64453 7.14532L7.24694 8.61933" stroke="#FF1A1A" stroke-width="1.5" stroke-miterlimit="10" stroke-linecap="round"/>
<path d="M7.24707 8.61945L7.84948 12.1534" stroke="#FF1A1A" stroke-width="1.5" stroke-miterlimit="10" stroke-linecap="round"/>
<path d="M7.84912 12.1534L8.45153 14.9363" stroke="#FF1A1A" stroke-width="1.5" stroke-miterlimit="10" stroke-linecap="round"/>
<path d="M8.45166 14.9361L9.05407 13.8123" stroke="#FF1A1A" stroke-width="1.5" stroke-miterlimit="10" stroke-linecap="round"/>
<path d="M9.0542 13.8124L9.65661 13.148" stroke="#FF1A1A" stroke-width="1.5" stroke-miterlimit="10" stroke-linecap="round"/>
<path d="M9.65625 13.148L10.2587 16.3664" stroke="#FF1A1A" stroke-width="1.5" stroke-miterlimit="10" stroke-linecap="round"/>
<path d="M10.2588 16.3663L10.8612 18.0007" stroke="#FF1A1A" stroke-width="1.5" stroke-miterlimit="10" stroke-linecap="round"/>
<path d="M10.8613 18.0008L11.4637 20.0048" stroke="#FF1A1A" stroke-width="1.5" stroke-miterlimit="10" stroke-linecap="round"/>
<path d="M11.4639 20.0049L12.0663 23.6047" stroke="#FF1A1A" stroke-width="1.5" stroke-miterlimit="10" stroke-linecap="round"/>
<path d="M12.0659 23.6046L12.6683 22.3047" stroke="#FF1A1A" stroke-width="1.5" stroke-miterlimit="10" stroke-linecap="round"/>
<path d="M12.6685 22.3047L13.2709 22.4679" stroke="#FF1A1A" stroke-width="1.5" stroke-miterlimit="10" stroke-linecap="round"/>
<path d="M13.271 22.4681L13.8734 23.9802" stroke="#FF1A1A" stroke-width="1.5" stroke-miterlimit="10" stroke-linecap="round"/>
<path d="M13.873 23.9802L14.4755 21.8109" stroke="#FF1A1A" stroke-width="1.5" stroke-miterlimit="10" stroke-linecap="round"/>
<path d="M14.4756 21.8109L15.078 22.9137" stroke="#FF1A1A" stroke-width="1.5" stroke-miterlimit="10" stroke-linecap="round"/>
<path d="M15.0781 22.9138L15.6805 21.7808" stroke="#FF1A1A" stroke-width="1.5" stroke-miterlimit="10" stroke-linecap="round"/>
<path d="M15.6807 21.7808L16.2831 22.4981" stroke="#FF1A1A" stroke-width="1.5" stroke-miterlimit="10" stroke-linecap="round"/>
<path d="M16.2832 22.4981L16.8856 24.01" stroke="#FF1A1A" stroke-width="1.5" stroke-miterlimit="10" stroke-linecap="round"/>
<path d="M16.8853 24.0099L17.4877 22.7386" stroke="#FF1A1A" stroke-width="1.5" stroke-miterlimit="10" stroke-linecap="round"/>
<path d="M17.4878 22.7387L18.0902 19.3882" stroke="#FF1A1A" stroke-width="1.5" stroke-miterlimit="10" stroke-linecap="round"/>
<path d="M18.0903 19.3882L18.6927 24.9176" stroke="#FF1A1A" stroke-width="1.5" stroke-miterlimit="10" stroke-linecap="round"/>
<path d="M18.6924 24.9176L19.2948 23.6082" stroke="#FF1A1A" stroke-width="1.5" stroke-miterlimit="10" stroke-linecap="round"/>
<path d="M19.2949 23.6082L19.8973 21.0313" stroke="#FF1A1A" stroke-width="1.5" stroke-miterlimit="10" stroke-linecap="round"/>
<path d="M19.8975 21.0312L20.4999 18.9354" stroke="#FF1A1A" stroke-width="1.5" stroke-miterlimit="10" stroke-linecap="round"/>
<path d="M20.5 18.9354L21.1024 18.8216" stroke="#FF1A1A" stroke-width="1.5" stroke-miterlimit="10" stroke-linecap="round"/>
<path d="M21.1025 18.8216L21.7049 20.1124" stroke="#FF1A1A" stroke-width="1.5" stroke-miterlimit="10" stroke-linecap="round"/>
<path d="M21.7046 20.1124L22.307 23.1693" stroke="#FF1A1A" stroke-width="1.5" stroke-miterlimit="10" stroke-linecap="round"/>
<path d="M22.3071 23.1693L22.9095 22.5276" stroke="#FF1A1A" stroke-width="1.5" stroke-miterlimit="10" stroke-linecap="round"/>
<path d="M22.9092 22.5276L23.5116 23.2265" stroke="#FF1A1A" stroke-width="1.5" stroke-miterlimit="10" stroke-linecap="round"/>
<path d="M23.5117 23.2267L24.1141 22.1302" stroke="#FF1A1A" stroke-width="1.5" stroke-miterlimit="10" stroke-linecap="round"/>
<path d="M24.1143 22.1301L24.7167 18.9053" stroke="#FF1A1A" stroke-width="1.5" stroke-miterlimit="10" stroke-linecap="round"/>
<path d="M24.7168 18.9053L25.3192 20.667" stroke="#FF1A1A" stroke-width="1.5" stroke-miterlimit="10" stroke-linecap="round"/>
<path d="M25.3193 20.667L25.9217 20.1375" stroke="#FF1A1A" stroke-width="1.5" stroke-miterlimit="10" stroke-linecap="round"/>
<path d="M25.9214 20.1374L26.5238 18.1075" stroke="#FF1A1A" stroke-width="1.5" stroke-miterlimit="10" stroke-linecap="round"/>
<path d="M26.5239 18.1075L27.1263 20.4333" stroke="#FF1A1A" stroke-width="1.5" stroke-miterlimit="10" stroke-linecap="round"/>
<path d="M27.1265 20.4335L27.7289 18.2471" stroke="#FF1A1A" stroke-width="1.5" stroke-miterlimit="10" stroke-linecap="round"/>
<path d="M27.7285 18.2471L28.3309 18.8315" stroke="#FF1A1A" stroke-width="1.5" stroke-miterlimit="10" stroke-linecap="round"/>
<path d="M28.3311 18.8314L28.9335 18.5191" stroke="#FF1A1A" stroke-width="1.5" stroke-miterlimit="10" stroke-linecap="round"/>
<path d="M28.9336 18.5192L29.536 17.4661" stroke="#FF1A1A" stroke-width="1.5" stroke-miterlimit="10" stroke-linecap="round"/>
<path d="M29.5361 17.4662L30.1385 15.2073" stroke="#FF1A1A" stroke-width="1.5" stroke-miterlimit="10" stroke-linecap="round"/>
<path d="M30.1387 15.2073L30.7411 16.5646" stroke="#FF1A1A" stroke-width="1.5" stroke-miterlimit="10" stroke-linecap="round"/>
<path d="M30.7407 16.5645L31.3431 16.9845" stroke="#FF1A1A" stroke-width="1.5" stroke-miterlimit="10" stroke-linecap="round"/>
<path d="M31.3433 16.9847L31.9457 18.2498" stroke="#FF1A1A" stroke-width="1.5" stroke-miterlimit="10" stroke-linecap="round"/>
<path d="M31.9453 18.2497L32.5477 16.688" stroke="#FF1A1A" stroke-width="1.5" stroke-miterlimit="10" stroke-linecap="round"/>
<path d="M32.5479 16.688L33.1503 21.6271" stroke="#FF1A1A" stroke-width="1.5" stroke-miterlimit="10" stroke-linecap="round"/>
<path d="M33.1504 21.627L33.7528 22.2974" stroke="#FF1A1A" stroke-width="1.5" stroke-miterlimit="10" stroke-linecap="round"/>
<path d="M33.7529 22.2976L34.3553 20.6121" stroke="#FF1A1A" stroke-width="1.5" stroke-miterlimit="10" stroke-linecap="round"/>
<path d="M34.3555 20.6121L34.9579 20.674" stroke="#FF1A1A" stroke-width="1.5" stroke-miterlimit="10" stroke-linecap="round"/>
<path d="M34.9575 20.674L35.5599 19.2454" stroke="#FF1A1A" stroke-width="1.5" stroke-miterlimit="10" stroke-linecap="round"/>
<path d="M35.5601 19.2454L36.1625 16.8336" stroke="#FF1A1A" stroke-width="1.5" stroke-miterlimit="10" stroke-linecap="round"/>
<path d="M36.1626 16.8335L36.765 15.8897" stroke="#FF1A1A" stroke-width="1.5" stroke-miterlimit="10" stroke-linecap="round"/>
<path d="M36.7646 15.8897L37.3671 14.4302" stroke="#FF1A1A" stroke-width="1.5" stroke-miterlimit="10" stroke-linecap="round"/>
<path d="M37.3672 14.4302L37.9696 17.1985" stroke="#FF1A1A" stroke-width="1.5" stroke-miterlimit="10" stroke-linecap="round"/>
<path d="M37.9697 17.1985L38.5721 15.9354" stroke="#FF1A1A" stroke-width="1.5" stroke-miterlimit="10" stroke-linecap="round"/>
<path d="M38.5723 15.9354L39.1747 17.3629" stroke="#FF1A1A" stroke-width="1.5" stroke-miterlimit="10" stroke-linecap="round"/>
<path d="M39.1748 17.3629L39.7772 18.7882" stroke="#FF1A1A" stroke-width="1.5" stroke-miterlimit="10" stroke-linecap="round"/>
<path d="M39.7769 18.7882L40.3793 17.1028" stroke="#FF1A1A" stroke-width="1.5" stroke-miterlimit="10" stroke-linecap="round"/>
<path d="M40.3794 17.1028L40.9818 18.843" stroke="#FF1A1A" stroke-width="1.5" stroke-miterlimit="10" stroke-linecap="round"/>
<path d="M40.9814 18.8431L41.5839 19.6865" stroke="#FF1A1A" stroke-width="1.5" stroke-miterlimit="10" stroke-linecap="round"/>
<path d="M41.584 19.6866L42.1864 19.994" stroke="#FF1A1A" stroke-width="1.5" stroke-miterlimit="10" stroke-linecap="round"/>
<path d="M42.1865 19.994L42.7889 20.3992" stroke="#FF1A1A" stroke-width="1.5" stroke-miterlimit="10" stroke-linecap="round"/>
<path d="M42.7891 20.399L43.3915 22.6439" stroke="#FF1A1A" stroke-width="1.5" stroke-miterlimit="10" stroke-linecap="round"/>
<path d="M43.3916 22.6441L43.994 29.0241" stroke="#FF1A1A" stroke-width="1.5" stroke-miterlimit="10" stroke-linecap="round"/>
<path d="M43.9937 29.024L44.5961 30.1914" stroke="#FF1A1A" stroke-width="1.5" stroke-miterlimit="10" stroke-linecap="round"/>
<path d="M44.5962 30.1914L45.1986 27.5662" stroke="#FF1A1A" stroke-width="1.5" stroke-miterlimit="10" stroke-linecap="round"/>
<path d="M45.1987 27.5662L45.8011 29.4302" stroke="#FF1A1A" stroke-width="1.5" stroke-miterlimit="10" stroke-linecap="round"/>
<path d="M45.8008 29.4302L46.4032 24.8995" stroke="#FF1A1A" stroke-width="1.5" stroke-miterlimit="10" stroke-linecap="round"/>
<path d="M46.4033 24.8994L47.0057 19.0347" stroke="#FF1A1A" stroke-width="1.5" stroke-miterlimit="10" stroke-linecap="round"/>
<path d="M47.0059 19.0348L47.6083 16.4725" stroke="#FF1A1A" stroke-width="1.5" stroke-miterlimit="10" stroke-linecap="round"/>
<path d="M47.6084 16.4725L48.2108 15.9249" stroke="#FF1A1A" stroke-width="1.5" stroke-miterlimit="10" stroke-linecap="round"/>
<path d="M48.2109 15.9247L48.8133 15.4107" stroke="#FF1A1A" stroke-width="1.5" stroke-miterlimit="10" stroke-linecap="round"/>
<path d="M48.813 15.4107L49.4154 17.3572" stroke="#FF1A1A" stroke-width="1.5" stroke-miterlimit="10" stroke-linecap="round"/>
<path d="M49.4155 17.3572L50.0179 15.8248" stroke="#FF1A1A" stroke-width="1.5" stroke-miterlimit="10" stroke-linecap="round"/>
<path d="M50.0181 15.8248L50.6205 15.0638" stroke="#FF1A1A" stroke-width="1.5" stroke-miterlimit="10" stroke-linecap="round"/>
<path d="M50.6201 15.0638L51.2225 17.5933" stroke="#FF1A1A" stroke-width="1.5" stroke-miterlimit="10" stroke-linecap="round"/>
<path d="M51.2227 17.5933L51.8251 18.3017" stroke="#FF1A1A" stroke-width="1.5" stroke-miterlimit="10" stroke-linecap="round"/>
<path d="M51.8252 18.3018L52.4276 19.0108" stroke="#FF1A1A" stroke-width="1.5" stroke-miterlimit="10" stroke-linecap="round"/>
<path d="M52.4277 19.0108L53.0301 18.8951" stroke="#FF1A1A" stroke-width="1.5" stroke-miterlimit="10" stroke-linecap="round"/>
<path d="M53.0298 18.8951L53.6322 21.671" stroke="#FF1A1A" stroke-width="1.5" stroke-miterlimit="10" stroke-linecap="round"/>
<path d="M53.6323 21.671L54.2347 24.1821" stroke="#FF1A1A" stroke-width="1.5" stroke-miterlimit="10" stroke-linecap="round"/>
<path d="M54.2349 24.1822L54.8373 24.9095" stroke="#FF1A1A" stroke-width="1.5" stroke-miterlimit="10" stroke-linecap="round"/>
<path d="M54.8369 24.9095L55.4393 25.4674" stroke="#FF1A1A" stroke-width="1.5" stroke-miterlimit="10" stroke-linecap="round"/>
<path d="M55.4395 25.4675L56.0419 21.449" stroke="#FF1A1A" stroke-width="1.5" stroke-miterlimit="10" stroke-linecap="round"/>
<path d="M56.042 21.449L56.6444 21.5291" stroke="#FF1A1A" stroke-width="1.5" stroke-miterlimit="10" stroke-linecap="round"/>
<path d="M56.6445 21.5291L57.2469 22.4959" stroke="#FF1A1A" stroke-width="1.5" stroke-miterlimit="10" stroke-linecap="round"/>
<path d="M57.2471 22.4957L57.8495 13.5999" stroke="#FF1A1A" stroke-width="1.5" stroke-miterlimit="10" stroke-linecap="round"/>
<path d="M57.8491 13.6001L58.4515 0.923157" stroke="#FF1A1A" stroke-width="1.5" stroke-miterlimit="10" stroke-linecap="round"/>
<path d="M58.4517 0.923157L59.0541 4.63698" stroke="#FF1A1A" stroke-width="1.5" stroke-miterlimit="10" stroke-linecap="round"/>
<path d="M59.0542 4.63678L59.6566 7.46147" stroke="#FF1A1A" stroke-width="1.5" stroke-miterlimit="10" stroke-linecap="round"/>
<path d="M59.6562 7.46163L60.2587 3.48883" stroke="#FF1A1A" stroke-width="1.5" stroke-miterlimit="10" stroke-linecap="round"/>
<path d="M60.2588 3.48883L60.8612 6.89667" stroke="#FF1A1A" stroke-width="1.5" stroke-miterlimit="10" stroke-linecap="round"/>
<path d="M60.8613 6.89673L61.4637 4.43219" stroke="#FF1A1A" stroke-width="1.5" stroke-miterlimit="10" stroke-linecap="round"/>
<path d="M61.4639 4.43219L62.0663 10.8386" stroke="#FF1A1A" stroke-width="1.5" stroke-miterlimit="10" stroke-linecap="round"/>
<path d="M62.0659 10.8384L62.6683 9.16705" stroke="#FF1A1A" stroke-width="1.5" stroke-miterlimit="10" stroke-linecap="round"/>
<path d="M62.6685 9.1672L63.2709 8.0296" stroke="#FF1A1A" stroke-width="1.5" stroke-miterlimit="10" stroke-linecap="round"/>
<path d="M63.271 8.02946L63.8734 7.02228" stroke="#FF1A1A" stroke-width="1.5" stroke-miterlimit="10" stroke-linecap="round"/>
<path d="M63.873 7.02228L64.4755 8.1298" stroke="#FF1A1A" stroke-width="1.5" stroke-miterlimit="10" stroke-linecap="round"/>
<path d="M64.4756 8.12987L65.078 8.11432" stroke="#FF1A1A" stroke-width="1.5" stroke-miterlimit="10" stroke-linecap="round"/>
<path d="M65.0781 8.11429L65.6805 6.71417" stroke="#FF1A1A" stroke-width="1.5" stroke-miterlimit="10" stroke-linecap="round"/>
<path d="M65.6807 6.71417L66.2831 7.21266" stroke="#FF1A1A" stroke-width="1.5" stroke-miterlimit="10" stroke-linecap="round"/>
<path d="M66.2832 7.21271L66.8856 9.93624" stroke="#FF1A1A" stroke-width="1.5" stroke-miterlimit="10" stroke-linecap="round"/>
<path d="M66.8853 9.93612L67.4877 9.74323" stroke="#FF1A1A" stroke-width="1.5" stroke-miterlimit="10" stroke-linecap="round"/>
<path d="M67.4878 9.74347L68.0902 8.10773" stroke="#FF1A1A" stroke-width="1.5" stroke-miterlimit="10" stroke-linecap="round"/>
<path d="M68.0903 8.10773L68.6927 8.11129" stroke="#FF1A1A" stroke-width="1.5" stroke-miterlimit="10" stroke-linecap="round"/>
<path d="M68.6924 8.11115L69.2948 11.4804" stroke="#FF1A1A" stroke-width="1.5" stroke-miterlimit="10" stroke-linecap="round"/>
<path d="M69.2949 11.4804L69.8973 11.2464" stroke="#FF1A1A" stroke-width="1.5" stroke-miterlimit="10" stroke-linecap="round"/>
<path d="M69.8975 11.2464L70.4999 11.6033" stroke="#FF1A1A" stroke-width="1.5" stroke-miterlimit="10" stroke-linecap="round"/>
<path d="M70.5 11.6032L71.1024 11.2296" stroke="#FF1A1A" stroke-width="1.5" stroke-miterlimit="10" stroke-linecap="round"/>
<path d="M71.1025 11.2297L71.7049 9.65704" stroke="#FF1A1A" stroke-width="1.5" stroke-miterlimit="10" stroke-linecap="round"/>
<path d="M71.7046 9.65682L72.307 7.42999" stroke="#FF1A1A" stroke-width="1.5" stroke-miterlimit="10" stroke-linecap="round"/>
<path d="M72.3071 7.43019L72.9095 5.75885" stroke="#FF1A1A" stroke-width="1.5" stroke-miterlimit="10" stroke-linecap="round"/>
<path d="M72.9092 5.75885L73.5116 8.93945" stroke="#FF1A1A" stroke-width="1.5" stroke-miterlimit="10" stroke-linecap="round"/>
<path d="M73.5117 8.93934L74.1141 7.75763" stroke="#FF1A1A" stroke-width="1.5" stroke-miterlimit="10" stroke-linecap="round"/>
<path d="M74.1143 7.75763L74.7167 10.7984" stroke="#FF1A1A" stroke-width="1.5" stroke-miterlimit="10" stroke-linecap="round"/>
<path d="M74.7168 10.7984L75.3192 11.6883" stroke="#FF1A1A" stroke-width="1.5" stroke-miterlimit="10" stroke-linecap="round"/>
<path d="M75.3193 11.6882L75.9217 11.6058" stroke="#FF1A1A" stroke-width="1.5" stroke-miterlimit="10" stroke-linecap="round"/>
<path d="M75.9214 11.6058L76.5238 9.6131" stroke="#FF1A1A" stroke-width="1.5" stroke-miterlimit="10" stroke-linecap="round"/>
<path d="M76.5239 9.61325L77.1263 9.09186" stroke="#FF1A1A" stroke-width="1.5" stroke-miterlimit="10" stroke-linecap="round"/>
<path d="M77.1265 9.09186L77.7289 10.3093" stroke="#FF1A1A" stroke-width="1.5" stroke-miterlimit="10" stroke-linecap="round"/>
<path d="M77.7285 10.3094L78.3309 11.0873" stroke="#FF1A1A" stroke-width="1.5" stroke-miterlimit="10" stroke-linecap="round"/>
<path d="M78.3311 11.0872L78.9335 10.3616" stroke="#FF1A1A" stroke-width="1.5" stroke-miterlimit="10" stroke-linecap="round"/>
<path d="M78.9336 10.3616L79.536 11.0753" stroke="#FF1A1A" stroke-width="1.5" stroke-miterlimit="10" stroke-linecap="round"/>
<path d="M79.5361 11.0753L80.1385 16.2335" stroke="#FF1A1A" stroke-width="1.5" stroke-miterlimit="10" stroke-linecap="round"/>
<path d="M80.1387 16.2335L80.7411 15.5101" stroke="#FF1A1A" stroke-width="1.5" stroke-miterlimit="10" stroke-linecap="round"/>
<path d="M80.7407 15.51L81.3431 14.6231" stroke="#FF1A1A" stroke-width="1.5" stroke-miterlimit="10" stroke-linecap="round"/>
<path d="M81.3433 14.6231L81.9457 15.3634" stroke="#FF1A1A" stroke-width="1.5" stroke-miterlimit="10" stroke-linecap="round"/>
<path d="M81.9453 15.3636L82.5477 14.6304" stroke="#FF1A1A" stroke-width="1.5" stroke-miterlimit="10" stroke-linecap="round"/>
<path d="M82.5479 14.6304L83.1503 16.873" stroke="#FF1A1A" stroke-width="1.5" stroke-miterlimit="10" stroke-linecap="round"/>
<path d="M83.1504 16.873L83.7528 14.6265" stroke="#FF1A1A" stroke-width="1.5" stroke-miterlimit="10" stroke-linecap="round"/>
<path d="M83.7529 14.6266L84.3553 13.596" stroke="#FF1A1A" stroke-width="1.5" stroke-miterlimit="10" stroke-linecap="round"/>
<path d="M84.3555 13.5958L84.9579 12.897" stroke="#FF1A1A" stroke-width="1.5" stroke-miterlimit="10" stroke-linecap="round"/>
<path d="M84.9575 12.897L85.5599 13.9182" stroke="#FF1A1A" stroke-width="1.5" stroke-miterlimit="10" stroke-linecap="round"/>
<path d="M85.5601 13.9182L86.1625 12.2291" stroke="#FF1A1A" stroke-width="1.5" stroke-miterlimit="10" stroke-linecap="round"/>
<path d="M86.1626 12.2291L86.765 11.3026" stroke="#FF1A1A" stroke-width="1.5" stroke-miterlimit="10" stroke-linecap="round"/>
<path d="M86.7646 11.3026L87.3671 13.155" stroke="#FF1A1A" stroke-width="1.5" stroke-miterlimit="10" stroke-linecap="round"/>
<path d="M87.3672 13.1552L87.9696 11.9195" stroke="#FF1A1A" stroke-width="1.5" stroke-miterlimit="10" stroke-linecap="round"/>
<path d="M87.9697 11.9194L88.5721 10.5023" stroke="#FF1A1A" stroke-width="1.5" stroke-miterlimit="10" stroke-linecap="round"/>
<path d="M88.5723 10.5023L89.1747 10.6389" stroke="#FF1A1A" stroke-width="1.5" stroke-miterlimit="10" stroke-linecap="round"/>
<path d="M89.1748 10.6391L89.7772 10.2718" stroke="#FF1A1A" stroke-width="1.5" stroke-miterlimit="10" stroke-linecap="round"/>
<path d="M89.7769 10.2717L90.3793 9.52838" stroke="#FF1A1A" stroke-width="1.5" stroke-miterlimit="10" stroke-linecap="round"/>
<path d="M90.3794 9.52838L90.9818 9.3653" stroke="#FF1A1A" stroke-width="1.5" stroke-miterlimit="10" stroke-linecap="round"/>
<path d="M90.9814 9.3653L91.5839 10.545" stroke="#FF1A1A" stroke-width="1.5" stroke-miterlimit="10" stroke-linecap="round"/>
<path d="M91.584 10.545L92.1864 11.2304" stroke="#FF1A1A" stroke-width="1.5" stroke-miterlimit="10" stroke-linecap="round"/>
<path d="M92.1865 11.2304L92.7889 8.75543" stroke="#FF1A1A" stroke-width="1.5" stroke-miterlimit="10" stroke-linecap="round"/>
<path d="M92.7891 8.75543L93.3915 10.3832" stroke="#FF1A1A" stroke-width="1.5" stroke-miterlimit="10" stroke-linecap="round"/>
<path d="M93.3916 10.3831L93.994 11.2481" stroke="#FF1A1A" stroke-width="1.5" stroke-miterlimit="10" stroke-linecap="round"/>
<path d="M93.9937 11.2482L94.5961 10.9544" stroke="#FF1A1A" stroke-width="1.5" stroke-miterlimit="10" stroke-linecap="round"/>
<path d="M94.5962 10.9544L95.1986 10.3919" stroke="#FF1A1A" stroke-width="1.5" stroke-miterlimit="10" stroke-linecap="round"/>
<path d="M95.1987 10.3919L95.8011 11.0846" stroke="#FF1A1A" stroke-width="1.5" stroke-miterlimit="10" stroke-linecap="round"/>
<path d="M95.8008 11.0845L96.4032 11.2084" stroke="#FF1A1A" stroke-width="1.5" stroke-miterlimit="10" stroke-linecap="round"/>
<path d="M96.4033 11.2083L97.0057 14.0487" stroke="#FF1A1A" stroke-width="1.5" stroke-miterlimit="10" stroke-linecap="round"/>
<path d="M97.0059 14.0489L97.6083 14.6557" stroke="#FF1A1A" stroke-width="1.5" stroke-miterlimit="10" stroke-linecap="round"/>
<path d="M97.6084 14.6557L98.2108 14.179" stroke="#FF1A1A" stroke-width="1.5" stroke-miterlimit="10" stroke-linecap="round"/>
<path d="M98.2109 14.1789L98.8134 11.9219" stroke="#FF1A1A" stroke-width="1.5" stroke-miterlimit="10" stroke-linecap="round"/>
<path d="M98.813 11.922L99.4154 11.4827" stroke="#FF1A1A" stroke-width="1.5" stroke-miterlimit="10" stroke-linecap="round"/>
<path d="M99.4155 11.4827L100.018 12.6564" stroke="#FF1A1A" stroke-width="1.5" stroke-miterlimit="10" stroke-linecap="round"/>
<path d="M100.018 12.6564L100.62 11.0735" stroke="#FF1A1A" stroke-width="1.5" stroke-miterlimit="10" stroke-linecap="round"/>
<path d="M100.62 11.0735L101.223 11.4349" stroke="#FF1A1A" stroke-width="1.5" stroke-miterlimit="10" stroke-linecap="round"/>
<path d="M123.777 20.8057C123.777 21.2035 123.619 21.5851 123.338 21.8664C123.056 22.1477 122.675 22.3057 122.277 22.3057C121.879 22.3057 121.497 22.1477 121.216 21.8664C120.935 21.5851 120.777 21.2035 120.777 20.8057C120.777 20.4079 120.935 20.0264 121.216 19.7451C121.497 19.4638 121.879 19.3057 122.277 19.3057C122.675 19.3057 123.056 19.4638 123.338 19.7451C123.619 20.0264 123.777 20.4079 123.777 20.8057ZM123.777 15.8057C123.777 16.2035 123.619 16.5851 123.338 16.8664C123.056 17.1477 122.675 17.3057 122.277 17.3057C121.879 17.3057 121.497 17.1477 121.216 16.8664C120.935 16.5851 120.777 16.2035 120.777 15.8057C120.777 15.4079 120.935 15.0264 121.216 14.7451C121.497 14.4638 121.879 14.3057 122.277 14.3057C122.675 14.3057 123.056 14.4638 123.338 14.7451C123.619 15.0264 123.777 15.4079 123.777 15.8057ZM123.777 10.8057C123.777 11.2035 123.619 11.5851 123.338 11.8664C123.056 12.1477 122.675 12.3057 122.277 12.3057C121.879 12.3057 121.497 12.1477 121.216 11.8664C120.935 11.5851 120.777 11.2035 120.777 10.8057C120.777 10.4079 120.935 10.0264 121.216 9.74506C121.497 9.46376 121.879 9.30573 122.277 9.30573C122.675 9.30573 123.056 9.46376 123.338 9.74506C123.619 10.0264 123.777 10.4079 123.777 10.8057Z" fill="white"/>
</svg>
