<svg width="1436" height="509" viewBox="0 0 1436 509" fill="none" xmlns="http://www.w3.org/2000/svg">
<path opacity="0.2" d="M37.4809 81.9631L-1.42285 16.303L55.339 49.9429L37.4809 81.9631Z" stroke="#EB5757" stroke-miterlimit="10"/>
<path opacity="0.2" d="M35.5537 83.468L-1.3542 81.6691L-3.32039 17.8406" stroke="#EB5757" stroke-miterlimit="10"/>
<path opacity="0.2" d="M-1.96276 82.0226L17.9462 52.4212L55.8235 49.9322" stroke="#EB5757" stroke-miterlimit="10"/>
<path opacity="0.2" d="M1.03827 84.5614L38.5983 86.474L56.032 53.2585L52.7069 110.605L1.03827 84.5614Z" stroke="#EB5757" stroke-miterlimit="10"/>
<path opacity="0.2" d="M38.74 86.6478L51.8931 109.457" stroke="#EB5757" stroke-miterlimit="10"/>
<path opacity="0.2" d="M-1.23099 81.201C-1.42898 80.8684 -1.71305 80.5938 -2.04724 80.4122C-2.38144 80.2305 -2.75068 80.1499 -3.10819 80.1806C-3.4657 80.2112 -3.79538 80.3518 -4.05544 80.5844C-4.31549 80.8171 -4.4942 81.1313 -4.56895 81.4873C-4.6437 81.8433 -4.61111 82.225 -4.47531 82.5842C-4.33951 82.9433 -4.10662 83.2636 -3.80614 83.5045C-3.50566 83.7455 -3.15111 83.8962 -2.78746 83.9375C-2.4238 83.9788 -2.0674 83.909 -1.76342 83.7368C-1.56149 83.624 -1.38747 83.4688 -1.25134 83.2801C-1.1152 83.0914 -1.01965 82.8729 -0.970168 82.6373C-0.920688 82.4016 -0.918258 82.1534 -0.96302 81.9069C-1.00778 81.6604 -1.09885 81.4205 -1.23099 81.201V81.201Z" stroke="#EB5757" stroke-miterlimit="10"/>
<path opacity="0.2" d="M36.7051 80.5066C36.507 80.1774 36.224 79.9063 35.8918 79.7273C35.5596 79.5484 35.1931 79.4697 34.8385 79.5011C34.4839 79.5325 34.1572 79.6727 33.8994 79.9039C33.6417 80.1352 33.4646 80.4471 33.3904 80.8004C33.3163 81.1536 33.3483 81.5324 33.4826 81.8889C33.617 82.2454 33.8475 82.5637 34.1451 82.8035C34.4427 83.0433 34.7941 83.194 35.155 83.2365C35.5158 83.2791 35.8699 83.2115 36.1726 83.0424C36.3746 82.9296 36.5486 82.7744 36.6847 82.5857C36.8208 82.397 36.9164 82.1786 36.9659 81.9429C37.0154 81.7072 37.0178 81.459 36.9731 81.2125C36.9283 80.9661 36.8372 80.7261 36.7051 80.5066V80.5066Z" stroke="#EB5757" stroke-miterlimit="10"/>
<path opacity="0.2" d="M57.3559 47.9366C57.1593 47.6027 56.8761 47.3265 56.5422 47.1431C56.2083 46.9597 55.8388 46.8773 55.4806 46.9065C55.1224 46.9357 54.7918 47.0751 54.5305 47.307C54.2693 47.5389 54.0894 47.8529 54.0136 48.209C53.9378 48.5651 53.9696 48.9473 54.1048 49.3071C54.2401 49.6668 54.4728 49.9879 54.7734 50.2295C55.0739 50.471 55.4287 50.6223 55.7928 50.6639C56.1569 50.7056 56.5138 50.6358 56.8181 50.4634C57.2245 50.2363 57.5095 49.8426 57.6103 49.3687C57.7112 48.8948 57.6197 48.3797 57.3559 47.9366V47.9366Z" stroke="#EB5757" stroke-miterlimit="10"/>
<path opacity="0.2" d="M0.227999 17.471C0.0316598 17.1375 -0.251137 16.8615 -0.584551 16.6781C-0.917966 16.4947 -1.28697 16.4121 -1.64483 16.4407C-2.00269 16.4694 -2.3333 16.608 -2.59472 16.8391C-2.85613 17.0701 -3.0366 17.3832 -3.11327 17.7386C-3.18993 18.094 -3.15935 18.4757 -3.02537 18.8354C-2.89139 19.1951 -2.66005 19.5165 -2.36067 19.7589C-2.0613 20.0014 -1.70737 20.154 -1.34374 20.1973C-0.980108 20.2407 -0.623144 20.1728 -0.31809 20.0024C0.0890724 19.775 0.375057 19.381 0.477387 18.9067C0.579717 18.4323 0.490058 17.9162 0.227999 17.471V17.471Z" stroke="#EB5757" stroke-miterlimit="10"/>
<path opacity="0.2" d="M39.2173 85.0843C39.0195 84.752 38.7359 84.4777 38.4022 84.2961C38.0685 84.1144 37.6997 84.0335 37.3425 84.0636C36.9853 84.0938 36.6557 84.2335 36.3955 84.4653C36.1352 84.6971 35.9559 85.0104 35.8803 85.3657C35.8047 85.721 35.8361 86.1023 35.9706 86.4613C36.1051 86.8204 36.3367 87.1411 36.636 87.3829C36.9353 87.6247 37.2889 87.7767 37.6522 87.8198C38.0154 87.8628 38.3719 87.7949 38.6766 87.6247C38.8799 87.5127 39.0553 87.3579 39.1927 87.1692C39.3302 86.9805 39.4268 86.7617 39.4771 86.5254C39.5274 86.2892 39.5303 86.0401 39.4857 85.7928C39.4411 85.5454 39.3499 85.3046 39.2173 85.0843V85.0843Z" stroke="#EB5757" stroke-miterlimit="10"/>
<path opacity="0.2" d="M20.2095 52.1221C20.0117 51.7899 19.7281 51.5156 19.3943 51.3339C19.0606 51.1522 18.6919 51.0713 18.3347 51.1015C17.9775 51.1316 17.6479 51.2714 17.3877 51.5032C17.1274 51.7349 16.9481 52.0483 16.8725 52.4035C16.7969 52.7588 16.8283 53.1401 16.9628 53.4992C17.0973 53.8582 17.3289 54.1789 17.6282 54.4207C17.9275 54.6625 18.2811 54.8146 18.6443 54.8576C19.0076 54.9006 19.364 54.8328 19.6687 54.6625C19.8721 54.5505 20.0475 54.3957 20.1849 54.207C20.3223 54.0183 20.419 53.7995 20.4693 53.5633C20.5196 53.327 20.5225 53.078 20.4779 52.8306C20.4333 52.5832 20.3421 52.3424 20.2095 52.1221V52.1221Z" stroke="#EB5757" stroke-miterlimit="10"/>
<path opacity="0.2" d="M59.4023 52.2269C59.2031 51.8959 58.9186 51.6233 58.5846 51.4434C58.2506 51.2635 57.8821 51.1843 57.5256 51.2159C57.1691 51.2475 56.8406 51.3884 56.5815 51.6209C56.3224 51.8533 56.1443 52.167 56.0697 52.5222C55.9951 52.8773 56.0274 53.2582 56.1624 53.6166C56.2975 53.975 56.5292 54.295 56.8284 54.5361C57.1277 54.7773 57.481 54.9288 57.8438 54.9715C58.2066 55.0143 58.5626 54.9463 58.867 54.7763C59.07 54.6629 59.2449 54.5069 59.3818 54.3172C59.5187 54.1275 59.6147 53.9078 59.6645 53.6709C59.7142 53.434 59.7167 53.1845 59.6717 52.9366C59.6267 52.6888 59.5351 52.4476 59.4023 52.2269Z" stroke="#EB5757" stroke-miterlimit="10"/>
<path opacity="0.2" d="M53.2536 108.724C53.057 108.39 52.7738 108.114 52.4399 107.931C52.106 107.747 51.7365 107.665 51.3783 107.694C51.0202 107.723 50.6895 107.863 50.4283 108.094C50.167 108.326 49.9871 108.64 49.9113 108.996C49.8355 109.353 49.8673 109.735 50.0026 110.095C50.1378 110.454 50.3705 110.775 50.6711 111.017C50.9716 111.258 51.3265 111.41 51.6905 111.451C52.0546 111.493 52.4115 111.423 52.7158 111.251C53.1222 111.024 53.4072 110.63 53.508 110.156C53.6089 109.682 53.5174 109.167 53.2536 108.724V108.724Z" stroke="#EB5757" stroke-miterlimit="10"/>
<path opacity="0.2" d="M2.12132 85.5122C1.92322 85.183 1.64023 84.9119 1.30803 84.7329C0.975837 84.554 0.609327 84.4753 0.254748 84.5067C-0.0998313 84.5381 -0.426604 84.6783 -0.684318 84.9095C-0.942031 85.1408 -1.11913 85.4527 -1.19331 85.8059C-1.26748 86.1592 -1.23539 86.538 -1.10108 86.8945C-0.966777 87.251 -0.736287 87.5693 -0.438666 87.8091C-0.141044 88.0489 0.210374 88.1996 0.571218 88.2421C0.932062 88.2846 1.28618 88.2171 1.58889 88.048C1.79082 87.9352 1.96484 87.78 2.10098 87.5913C2.23711 87.4026 2.33266 87.1842 2.38214 86.9485C2.43162 86.7128 2.43405 86.4646 2.38929 86.2181C2.34453 85.9716 2.25346 85.7317 2.12132 85.5122V85.5122Z" stroke="#EB5757" stroke-miterlimit="10"/>
<g clip-path="url(#clip0_30_3839)">
<g opacity="0.7">
<g opacity="0.7">
<g opacity="0.7">
<g opacity="0.7">
<path opacity="0.7" d="M930.23 465.445L981.318 435.962L1033.35 430.67L1074.6 454.483L1111.31 452.971L1142.91 434.639" stroke="white" stroke-width="0.5349" stroke-miterlimit="10"/>
</g>
<g opacity="0.7">
<path opacity="0.7" d="M1031.84 441.443L1071.95 464.5L1114.9 462.799L1169.96 431.048" stroke="white" stroke-width="0.5349" stroke-miterlimit="10"/>
</g>
<path opacity="0.7" d="M1145.37 435.773C1144.23 436.529 1142.34 436.529 1141.2 435.773C1140.07 435.017 1140.07 434.072 1141.2 433.316C1142.34 432.56 1144.23 432.56 1145.37 433.316C1146.5 434.072 1146.5 435.017 1145.37 435.773Z" fill="white"/>
<path opacity="0.7" d="M1172.24 432.182C1171.1 432.938 1169.21 432.938 1168.07 432.182C1166.94 431.426 1166.94 430.481 1168.07 429.725C1169.21 428.969 1171.1 428.969 1172.24 429.725C1173.37 430.481 1173.37 431.426 1172.24 432.182Z" fill="white"/>
<path opacity="0.7" d="M1117.17 463.933C1116.04 464.689 1114.15 464.689 1113.01 463.933C1111.88 463.177 1111.88 462.232 1113.01 461.476C1114.15 460.72 1116.04 460.72 1117.17 461.476C1118.31 462.232 1118.31 463.366 1117.17 463.933Z" fill="white"/>
<path opacity="0.7" d="M1113.39 454.105C1112.25 454.861 1110.36 454.861 1109.23 454.105C1108.09 453.349 1108.09 452.404 1109.23 451.648C1110.36 450.892 1112.25 450.892 1113.39 451.648C1114.52 452.404 1114.52 453.538 1113.39 454.105Z" fill="white"/>
<path opacity="0.7" d="M1035.43 431.993C1034.3 432.749 1032.41 432.749 1031.27 431.993C1030.14 431.237 1030.14 430.292 1031.27 429.536C1032.41 428.78 1034.3 428.78 1035.43 429.536C1036.57 430.292 1036.57 431.426 1035.43 431.993Z" fill="white"/>
<path opacity="0.7" d="M1033.92 442.577C1032.78 443.333 1030.89 443.333 1029.76 442.577C1028.62 441.821 1028.62 440.876 1029.76 440.12C1030.89 439.364 1032.78 439.364 1033.92 440.12C1035.05 440.876 1035.05 442.01 1033.92 442.577Z" fill="white"/>
<path opacity="0.7" d="M932.312 466.578C931.177 467.334 929.284 467.334 928.149 466.578C927.014 465.823 927.014 464.878 928.149 464.122C929.284 463.366 931.177 463.366 932.312 464.122C933.636 464.878 933.636 466.012 932.312 466.578Z" fill="white"/>
</g>
<g opacity="0.7">
<g opacity="0.7">
<path opacity="0.7" d="M1153.31 452.643L1113.2 475.889L1070.25 473.999L1015.19 442.437" stroke="white" stroke-width="0.5349" stroke-miterlimit="10"/>
</g>
<path opacity="0.7" d="M1012.92 443.382C1014.05 444.138 1015.94 444.138 1017.08 443.382C1018.21 442.626 1018.21 441.681 1017.08 440.925C1015.94 440.169 1014.05 440.169 1012.92 440.925C1011.78 441.681 1011.78 442.815 1012.92 443.382Z" fill="white"/>
<path opacity="0.7" d="M1067.98 475.133C1069.11 475.889 1071.01 475.889 1072.14 475.133C1073.28 474.377 1073.28 473.432 1072.14 472.676C1071.01 471.92 1069.11 471.92 1067.98 472.676C1066.84 473.432 1066.84 474.566 1067.98 475.133Z" fill="white"/>
<path opacity="0.7" d="M1151.23 453.966C1152.37 454.722 1154.26 454.722 1155.4 453.966C1156.53 453.21 1156.53 452.265 1155.4 451.509C1154.26 450.753 1152.37 450.753 1151.23 451.509C1150.1 452.076 1150.1 453.21 1151.23 453.966Z" fill="white"/>
</g>
<g opacity="0.7">
<g opacity="0.7">
<path opacity="0.7" d="M1071.95 435.206L1021.05 405.723L968.83 400.432L927.581 424.245L891.063 422.733L859.275 404.401" stroke="white" stroke-width="0.5349" stroke-miterlimit="10"/>
</g>
<g opacity="0.7">
<path opacity="0.7" d="M970.533 411.204L930.42 434.261L887.468 432.56L832.407 400.81" stroke="white" stroke-width="0.5349" stroke-miterlimit="10"/>
</g>
<path opacity="0.7" d="M856.815 405.534C857.951 406.29 859.843 406.29 860.978 405.534C862.113 404.778 862.113 403.834 860.978 403.078C859.843 402.322 857.951 402.322 856.815 403.078C855.68 403.645 855.68 404.778 856.815 405.534Z" fill="white"/>
<path opacity="0.7" d="M829.947 401.944C831.082 402.7 832.974 402.7 834.11 401.944C835.245 401.188 835.245 400.243 834.11 399.487C832.974 398.731 831.082 398.731 829.947 399.487C828.812 400.243 828.812 401.188 829.947 401.944Z" fill="white"/>
<path opacity="0.7" d="M885.197 433.694C886.333 434.45 888.225 434.45 889.36 433.694C890.495 432.938 890.495 431.993 889.36 431.237C888.225 430.481 886.333 430.481 885.197 431.237C884.062 431.993 884.062 432.938 885.197 433.694Z" fill="white"/>
<path opacity="0.7" d="M888.982 423.867C890.117 424.623 892.009 424.623 893.145 423.867C894.28 423.111 894.28 422.166 893.145 421.41C892.009 420.654 890.117 420.654 888.982 421.41C887.847 422.166 887.847 423.3 888.982 423.867Z" fill="white"/>
<path opacity="0.7" d="M966.938 401.755C968.073 402.511 969.965 402.511 971.101 401.755C972.236 400.999 972.236 400.054 971.101 399.298C969.965 398.542 968.073 398.542 966.938 399.298C965.803 400.054 965.803 401.188 966.938 401.755Z" fill="white"/>
<path opacity="0.7" d="M968.452 412.338C969.587 413.094 971.479 413.094 972.614 412.338C973.75 411.582 973.75 410.637 972.614 409.881C971.479 409.125 969.587 409.125 968.452 409.881C967.127 410.637 967.127 411.771 968.452 412.338Z" fill="white"/>
<path opacity="0.7" d="M1069.87 436.34C1071.01 437.096 1072.9 437.096 1074.03 436.34C1075.17 435.584 1075.17 434.639 1074.03 433.883C1072.9 433.127 1071.01 433.127 1069.87 433.883C1068.74 434.639 1068.74 435.584 1069.87 436.34Z" fill="white"/>
</g>
</g>
</g>
<g opacity="0.7">
<g opacity="0.7">
<g opacity="0.7">
<g opacity="0.7">
<path opacity="0.7" d="M1331.36 312.929L1291.44 336.175L1248.49 334.474L1193.43 302.723" stroke="white" stroke-width="0.5349" stroke-miterlimit="10"/>
</g>
<path opacity="0.7" d="M1217.84 307.259C1218.97 308.015 1220.86 308.015 1222 307.259C1223.13 306.503 1223.13 305.558 1222 304.802C1220.86 304.046 1218.97 304.046 1217.84 304.802C1216.7 305.558 1216.7 306.692 1217.84 307.259Z" fill="white"/>
<path opacity="0.7" d="M1190.97 303.668C1192.1 304.424 1194 304.424 1195.13 303.668C1196.27 302.912 1196.27 301.967 1195.13 301.212C1194 300.456 1192.1 300.456 1190.97 301.212C1189.83 301.967 1189.83 303.101 1190.97 303.668Z" fill="white"/>
<path opacity="0.7" d="M1246.22 335.419C1247.35 336.175 1249.25 336.175 1250.38 335.419C1251.52 334.663 1251.52 333.718 1250.38 332.962C1249.25 332.206 1247.35 332.206 1246.22 332.962C1245.08 333.718 1245.08 334.852 1246.22 335.419Z" fill="white"/>
<path opacity="0.7" d="M1250 325.78C1251.14 326.536 1253.03 326.536 1254.17 325.78C1255.3 325.024 1255.3 324.079 1254.17 323.323C1253.03 322.567 1251.14 322.567 1250 323.323C1248.87 324.079 1248.87 325.024 1250 325.78Z" fill="white"/>
<path opacity="0.7" d="M1329.28 314.252C1330.42 315.008 1332.31 315.008 1333.45 314.252C1334.58 313.496 1334.58 312.551 1333.45 311.795C1332.31 311.039 1330.42 311.039 1329.28 311.795C1328.15 312.362 1328.15 313.496 1329.28 314.252Z" fill="white"/>
</g>
<g opacity="0.7">
<g opacity="0.7">
<path opacity="0.7" d="M1184.16 381.344L1235.05 352.05L1287.28 346.569L1328.53 370.382" stroke="white" stroke-width="0.5349" stroke-miterlimit="10"/>
</g>
<g opacity="0.7">
<path opacity="0.7" d="M1285.57 357.342L1325.69 380.588" stroke="white" stroke-width="0.5349" stroke-miterlimit="10"/>
</g>
<path opacity="0.7" d="M1289.17 348.081C1288.03 348.837 1286.14 348.837 1285.01 348.081C1283.87 347.325 1283.87 346.38 1285.01 345.624C1286.14 344.868 1288.03 344.868 1289.17 345.624C1290.31 346.191 1290.31 347.325 1289.17 348.081Z" fill="white"/>
<path opacity="0.7" d="M1287.66 358.665C1286.52 359.421 1284.63 359.421 1283.49 358.665C1282.36 357.909 1282.36 356.964 1283.49 356.208C1284.63 355.452 1286.52 355.452 1287.66 356.208C1288.79 356.964 1288.79 357.909 1287.66 358.665Z" fill="white"/>
<path opacity="0.7" d="M1186.24 382.667C1185.1 383.423 1183.21 383.423 1182.07 382.667C1180.94 381.911 1180.94 380.966 1182.07 380.21C1183.21 379.454 1185.1 379.454 1186.24 380.21C1187.37 380.966 1187.37 381.911 1186.24 382.667Z" fill="white"/>
</g>
<g opacity="0.7">
<g opacity="0.7">
<path opacity="0.7" d="M1190.02 410.637L1240.92 381.344L1293.14 375.863L1334.39 399.676" stroke="white" stroke-width="0.5349" stroke-miterlimit="10"/>
</g>
<g opacity="0.7">
<path opacity="0.7" d="M1291.63 386.635L1331.74 409.881" stroke="white" stroke-width="0.5349" stroke-miterlimit="10"/>
</g>
<path opacity="0.7" d="M1295.04 377.186C1293.9 377.942 1292.01 377.942 1290.87 377.186C1289.74 376.43 1289.74 375.485 1290.87 374.729C1292.01 373.973 1293.9 373.973 1295.04 374.729C1296.17 375.485 1296.17 376.619 1295.04 377.186Z" fill="white"/>
<path opacity="0.7" d="M1293.71 387.958C1292.58 388.714 1290.68 388.714 1289.55 387.958C1288.41 387.202 1288.41 386.257 1289.55 385.501C1290.68 384.745 1292.58 384.745 1293.71 385.501C1294.85 386.068 1294.85 387.202 1293.71 387.958Z" fill="white"/>
<path opacity="0.7" d="M1192.1 411.771C1190.97 412.527 1189.08 412.527 1187.94 411.771C1186.81 411.015 1186.81 410.07 1187.94 409.314C1189.08 408.558 1190.97 408.558 1192.1 409.314C1193.24 410.07 1193.24 411.204 1192.1 411.771Z" fill="white"/>
</g>
</g>
</g>
<g opacity="0.7">
<g opacity="0.7">
<g opacity="0.7">
<g opacity="0.7">
<path opacity="0.7" d="M923.23 242.246L974.129 271.729L1026.16 277.021L1067.6 253.208L1104.12 254.72L1135.91 273.052" stroke="white" stroke-width="0.5349" stroke-miterlimit="10"/>
</g>
<g opacity="0.7">
<path opacity="0.7" d="M1024.65 266.248L1064.76 243.191L1107.71 244.892L1162.78 276.643" stroke="white" stroke-width="0.5349" stroke-miterlimit="10"/>
</g>
<path opacity="0.7" d="M1138.18 271.918C1137.04 271.162 1135.15 271.162 1134.01 271.918C1132.88 272.674 1132.88 273.619 1134.01 274.375C1135.15 275.131 1137.04 275.131 1138.18 274.375C1139.31 273.619 1139.31 272.674 1138.18 271.918Z" fill="white"/>
<path opacity="0.7" d="M1165.05 275.509C1163.91 274.753 1162.02 274.753 1160.88 275.509C1159.75 276.265 1159.75 277.21 1160.88 277.966C1162.02 278.722 1163.91 278.722 1165.05 277.966C1166.37 277.21 1166.37 276.265 1165.05 275.509Z" fill="white"/>
<path opacity="0.7" d="M1109.98 243.758C1108.85 243.002 1106.96 243.002 1105.82 243.758C1104.69 244.514 1104.69 245.459 1105.82 246.215C1106.96 246.971 1108.85 246.971 1109.98 246.215C1111.12 245.459 1111.12 244.325 1109.98 243.758Z" fill="white"/>
<path opacity="0.7" d="M1106.2 253.397C1105.06 252.641 1103.17 252.641 1102.04 253.397C1100.9 254.153 1100.9 255.098 1102.04 255.854C1103.17 256.61 1105.06 256.61 1106.2 255.854C1107.34 255.287 1107.34 254.153 1106.2 253.397Z" fill="white"/>
<path opacity="0.7" d="M1028.24 275.698C1027.11 274.942 1025.22 274.942 1024.08 275.698C1022.95 276.454 1022.95 277.399 1024.08 278.155C1025.22 278.911 1027.11 278.911 1028.24 278.155C1029.38 277.399 1029.38 276.265 1028.24 275.698Z" fill="white"/>
<path opacity="0.7" d="M1026.73 265.114C1025.59 264.358 1023.7 264.358 1022.57 265.114C1021.43 265.87 1021.43 266.815 1022.57 267.571C1023.7 268.327 1025.59 268.327 1026.73 267.571C1027.87 266.815 1027.87 265.681 1026.73 265.114Z" fill="white"/>
<path opacity="0.7" d="M925.311 241.112C924.176 240.356 922.284 240.356 921.149 241.112C920.013 241.868 920.013 242.813 921.149 243.569C922.284 244.325 924.176 244.325 925.311 243.569C926.447 242.813 926.447 241.679 925.311 241.112Z" fill="white"/>
</g>
<g opacity="0.7">
<g opacity="0.7">
<path opacity="0.7" d="M1247.73 201.046L1196.83 230.34L1144.61 235.821L1103.36 212.008L1066.65 213.52L1035.06 231.663" stroke="white" stroke-width="0.5349" stroke-miterlimit="10"/>
</g>
<g opacity="0.7">
<path opacity="0.7" d="M1146.12 225.048L1106.01 201.802L1063.06 203.503L1008.19 235.254" stroke="white" stroke-width="0.5349" stroke-miterlimit="10"/>
</g>
<path opacity="0.7" d="M1032.6 230.718C1033.73 229.962 1035.62 229.962 1036.76 230.718C1037.89 231.474 1037.89 232.419 1036.76 233.175C1035.62 233.931 1033.73 233.931 1032.6 233.175C1031.46 232.419 1031.46 231.285 1032.6 230.718Z" fill="white"/>
<path opacity="0.7" d="M1005.73 234.309C1006.86 233.553 1008.75 233.553 1009.89 234.309C1011.03 235.065 1011.03 236.01 1009.89 236.766C1008.75 237.522 1006.86 237.522 1005.73 236.766C1004.59 236.01 1004.59 234.876 1005.73 234.309Z" fill="white"/>
<path opacity="0.7" d="M1060.79 202.558C1061.92 201.802 1063.82 201.802 1064.95 202.558C1066.09 203.314 1066.09 204.259 1064.95 205.015C1063.82 205.771 1061.92 205.771 1060.79 205.015C1059.65 204.259 1059.65 203.125 1060.79 202.558Z" fill="white"/>
<path opacity="0.7" d="M1064.57 212.197C1065.71 211.441 1067.6 211.441 1068.74 212.197C1069.87 212.953 1069.87 213.898 1068.74 214.654C1067.6 215.41 1065.71 215.41 1064.57 214.654C1063.44 213.898 1063.44 212.953 1064.57 212.197Z" fill="white"/>
<path opacity="0.7" d="M1142.72 234.498C1143.85 233.742 1145.75 233.742 1146.88 234.498C1148.02 235.254 1148.02 236.199 1146.88 236.955C1145.75 237.711 1143.85 237.711 1142.72 236.955C1141.58 236.199 1141.58 235.065 1142.72 234.498Z" fill="white"/>
<path opacity="0.7" d="M1144.04 223.725C1145.18 222.969 1147.07 222.969 1148.21 223.725C1149.34 224.481 1149.34 225.426 1148.21 226.182C1147.07 226.938 1145.18 226.938 1144.04 226.182C1142.91 225.615 1142.91 224.481 1144.04 223.725Z" fill="white"/>
<path opacity="0.7" d="M1245.65 199.912C1246.79 199.156 1248.68 199.156 1249.81 199.912C1250.95 200.668 1250.95 201.613 1249.81 202.369C1248.68 203.125 1246.79 203.125 1245.65 202.369C1244.52 201.613 1244.52 200.479 1245.65 199.912Z" fill="white"/>
</g>
<g opacity="0.7">
<g opacity="0.7">
<path opacity="0.7" d="M1064.76 272.485L1013.86 301.967L961.829 307.259L920.392 283.446L883.873 284.958L852.085 303.29" stroke="white" stroke-width="0.5349" stroke-miterlimit="10"/>
</g>
<g opacity="0.7">
<path opacity="0.7" d="M963.343 296.487L923.23 273.43L880.278 275.131L825.217 306.881" stroke="white" stroke-width="0.5349" stroke-miterlimit="10"/>
</g>
<path opacity="0.7" d="M849.815 302.156C850.95 301.401 852.842 301.401 853.977 302.156C855.113 302.912 855.113 303.857 853.977 304.613C852.842 305.369 850.95 305.369 849.815 304.613C848.679 303.857 848.679 302.912 849.815 302.156Z" fill="white"/>
<path opacity="0.7" d="M822.946 305.747C824.082 305.18 825.784 305.18 827.109 305.747C828.244 306.503 828.244 307.448 827.109 308.204C825.974 308.96 824.082 308.96 822.946 308.204C821.622 307.448 821.622 306.503 822.946 305.747Z" fill="white"/>
<path opacity="0.7" d="M880.089 276.832C881.761 276.832 883.116 276.07 883.116 275.131C883.116 274.191 881.761 273.43 880.089 273.43C878.417 273.43 877.062 274.191 877.062 275.131C877.062 276.07 878.417 276.832 880.089 276.832Z" fill="white"/>
<path opacity="0.7" d="M881.792 283.824C882.927 283.068 884.819 283.068 885.955 283.824C887.09 284.58 887.09 285.525 885.955 286.281C884.819 287.037 882.927 287.037 881.792 286.281C880.657 285.525 880.657 284.391 881.792 283.824Z" fill="white"/>
<path opacity="0.7" d="M959.748 305.936C960.883 305.18 962.776 305.18 963.911 305.936C965.046 306.692 965.046 307.637 963.911 308.393C962.776 309.149 960.883 309.149 959.748 308.393C958.613 307.637 958.613 306.503 959.748 305.936Z" fill="white"/>
<path opacity="0.7" d="M961.262 295.353C962.397 294.597 964.289 294.597 965.425 295.353C966.56 296.109 966.56 297.054 965.425 297.81C964.289 298.566 962.397 298.566 961.262 297.81C960.127 297.054 960.127 295.92 961.262 295.353Z" fill="white"/>
<path opacity="0.7" d="M1062.68 271.351C1063.82 270.595 1065.71 270.595 1066.84 271.351C1067.98 272.107 1067.98 273.052 1066.84 273.808C1065.71 274.564 1063.82 274.564 1062.68 273.808C1061.55 273.052 1061.55 272.107 1062.68 271.351Z" fill="white"/>
</g>
</g>
</g>
</g>
<path d="M1117.32 154.669C1117.32 162.495 1115.06 168.582 1111.07 172.061C1109.85 173.104 1102.38 178.322 1100.99 179.018C1095.78 181.105 1095.25 175.887 1087.96 171.713C1071.62 162.321 1058.42 139.364 1058.42 120.581C1058.42 113.45 1053.72 112.406 1057.03 108.754C1057.89 107.884 1065.54 102.493 1066.58 101.797C1071.97 98.3188 1079.62 98.6666 1088.13 103.536C1104.12 112.928 1117.32 135.712 1117.32 154.669Z" fill="url(#paint0_linear_30_3839)"/>
<path d="M1110.37 159.365C1110.37 178.148 1097.17 185.801 1080.83 176.409C1064.5 167.017 1051.29 144.06 1051.29 125.276C1051.29 106.493 1064.5 98.8405 1080.83 108.232C1097.17 117.624 1110.37 140.581 1110.37 159.365Z" fill="url(#paint1_linear_30_3839)"/>
<path d="M1099.28 174.25C1109.5 168.343 1109.54 149.258 1099.37 131.624C1089.2 113.989 1072.66 104.482 1062.44 110.389C1052.22 116.297 1052.18 135.381 1062.35 153.016C1072.52 170.65 1089.06 180.157 1099.28 174.25Z" stroke="#4D0063" stroke-width="0.6873" stroke-miterlimit="10"/>
<path d="M1089 133.625V127.537L1084.13 124.755V130.32L1079.27 127.537V121.972L1074.4 119.189V124.755L1069.54 121.972V149.625L1074.4 152.408V157.973L1079.27 160.756V155.191L1084.13 157.973V163.539L1089 166.321V160.234C1091.26 160.582 1092.99 159.539 1093.52 157.104C1094.04 154.843 1093.52 151.538 1091.95 148.582C1093.52 147.538 1094.21 144.929 1093.52 141.973C1092.99 139.016 1091.26 135.885 1089 133.625ZM1074.58 130.32L1086.57 137.277C1087.96 137.973 1089 139.886 1089 141.451C1089 143.016 1087.96 143.538 1086.57 142.842L1074.58 135.885V130.32ZM1086.57 153.799L1074.58 146.842V141.277L1086.57 148.234C1087.96 148.929 1089 150.843 1089 152.408C1089 153.973 1087.96 154.669 1086.57 153.799Z" fill="white"/>
<path d="M1083.26 429.984L960.584 359.373C955.024 356.242 955.024 339.546 957.283 333.98L1072.32 274.326C1078.57 270.673 1088.3 270.326 1093.86 273.456L1219.32 337.459C1223.84 344.763 1221.41 361.981 1214.98 365.634L1104.98 429.288C1098.38 432.767 1088.65 433.115 1083.26 429.984Z" fill="url(#paint2_linear_30_3839)"/>
<path d="M1083.26 411.723L960.584 341.111C955.024 337.981 955.719 332.415 962.148 328.763L1072.14 265.108C1078.4 261.456 1088.13 261.108 1093.69 264.238L1216.37 334.85C1221.93 337.981 1221.23 343.546 1214.81 347.198L1104.81 410.853C1098.38 414.505 1088.65 414.853 1083.26 411.723Z" fill="url(#paint3_linear_30_3839)"/>
<path d="M1083.09 403.548L974.833 341.111C969.272 337.981 969.967 332.415 976.397 328.763L1072.49 273.282C1078.75 269.63 1088.48 269.282 1094.04 272.413L1202.29 334.85C1207.85 337.981 1207.16 343.546 1200.73 347.198L1104.64 402.679C1098.21 406.331 1088.48 406.679 1083.09 403.548Z" fill="url(#paint4_linear_30_3839)"/>
<path opacity="0.1" d="M1087.43 378.678C1133.98 378.678 1171.71 360.301 1171.71 337.633C1171.71 314.964 1133.98 296.588 1087.43 296.588C1040.89 296.588 1003.16 314.964 1003.16 337.633C1003.16 360.301 1040.89 378.678 1087.43 378.678Z" fill="url(#paint5_radial_30_3839)"/>
<path opacity="0.1" d="M1139.39 359.547C1111.76 373.112 1066.76 373.112 1039.13 359.547C1011.5 345.981 1011.5 324.241 1039.13 310.675C1066.76 297.109 1111.76 297.109 1139.39 310.675C1167.02 324.241 1167.02 345.981 1139.39 359.547Z" fill="url(#paint6_radial_30_3839)"/>
<path d="M1028.35 307.718L1151.9 308.762V325.98C1151.9 335.198 1145.82 344.242 1133.83 351.198C1109.68 365.112 1070.58 365.112 1046.43 351.198C1034.44 344.242 1028.35 335.024 1028.35 325.98V307.718Z" fill="url(#paint7_linear_30_3839)"/>
<path d="M1034.44 305.631H1032.35V338.395H1034.44V305.631Z" fill="#4D0063"/>
<path d="M1041.56 305.631H1039.47V343.372H1041.56V305.631Z" fill="#4D0063"/>
<path d="M1048.51 305.631H1046.43V343.372H1048.51V305.631Z" fill="#4D0063"/>
<path d="M1055.64 305.631H1053.55V343.372H1055.64V305.631Z" fill="#4D0063"/>
<path d="M1062.76 305.631H1060.67V343.372H1062.76V305.631Z" fill="#4D0063"/>
<path d="M1069.88 305.631H1067.8V343.372H1069.88V305.631Z" fill="#4D0063"/>
<path d="M1077.01 305.631H1074.92V343.372H1077.01V305.631Z" fill="#4D0063"/>
<path d="M1084.13 305.631H1082.05V343.372H1084.13V305.631Z" fill="#4D0063"/>
<path d="M1091.26 305.631H1089.17V343.372H1091.26V305.631Z" fill="#4D0063"/>
<path d="M1098.38 305.631H1096.3V343.372H1098.38V305.631Z" fill="#4D0063"/>
<path d="M1105.33 305.631H1103.25V343.372H1105.33V305.631Z" fill="#4D0063"/>
<path d="M1112.46 305.631H1110.37V343.372H1112.46V305.631Z" fill="#4D0063"/>
<path d="M1119.58 305.631H1117.5V343.372H1119.58V305.631Z" fill="#4D0063"/>
<path d="M1126.71 305.631H1124.62V343.372H1126.71V305.631Z" fill="#4D0063"/>
<path d="M1133.83 305.631H1131.75V343.372H1133.83V305.631Z" fill="#4D0063"/>
<path d="M1140.95 305.631H1138.87V343.372H1140.95V305.631Z" fill="#4D0063"/>
<path d="M1148.08 305.631H1145.99V337.622H1148.08V305.631Z" fill="#4D0063"/>
<path d="M1090.21 345.111C1124.38 345.111 1152.08 329.149 1152.08 309.458C1152.08 289.767 1124.38 273.804 1090.21 273.804C1056.05 273.804 1028.35 289.767 1028.35 309.458C1028.35 329.149 1056.05 345.111 1090.21 345.111Z" fill="url(#paint8_linear_30_3839)"/>
<path d="M1090.21 338.85C1120.06 338.85 1144.26 324.912 1144.26 307.718C1144.26 290.525 1120.06 276.587 1090.21 276.587C1060.37 276.587 1036.17 290.525 1036.17 307.718C1036.17 324.912 1060.37 338.85 1090.21 338.85Z" stroke="#4D0063" stroke-width="1.1865" stroke-miterlimit="10"/>
<path d="M1083.61 288.413L1075.79 283.891L1068.67 288.065L1075.79 292.24L1068.67 296.414L1061.54 292.24L1054.42 296.414L1061.54 300.588L1054.42 304.762L1090.21 325.458L1097.34 321.284L1104.46 325.458L1111.59 321.284L1104.46 317.11L1111.59 312.936L1118.71 317.11L1125.84 312.936L1118.02 308.414C1120.28 305.805 1119.93 302.675 1117.5 300.24C1114.89 297.805 1110.37 296.066 1105.33 296.066C1105.16 293.109 1102.38 290.5 1098.03 288.935C1093.52 287.196 1088.13 287.022 1083.61 288.413ZM1068.67 304.588L1086.57 294.327C1088.48 293.109 1091.78 293.109 1093.69 294.327C1095.6 295.544 1095.6 297.283 1093.69 298.501L1075.79 308.762L1068.67 304.588ZM1107.94 306.675L1090.04 316.936L1082.92 312.762L1100.81 302.501C1102.73 301.283 1106.03 301.283 1107.94 302.501C1110.02 303.544 1110.02 305.457 1107.94 306.675Z" fill="white"/>
<path d="M1028.35 287.544L1151.9 288.587V305.805C1151.9 315.023 1145.82 324.067 1133.83 331.024C1109.68 344.937 1070.58 344.937 1046.43 331.024C1034.44 324.067 1028.35 314.849 1028.35 305.805V287.544Z" fill="url(#paint9_linear_30_3839)"/>
<path d="M1034.44 285.283H1032.35V338.395H1034.44V285.283Z" fill="#4D0063"/>
<path d="M1041.56 285.283H1039.47V346.347H1041.56V285.283Z" fill="#4D0063"/>
<path d="M1048.51 285.283H1046.43V351.192H1048.51V285.283Z" fill="#4D0063"/>
<path d="M1055.64 285.283H1053.55V354.803H1055.64V285.283Z" fill="#4D0063"/>
<path d="M1062.76 285.283H1060.67V357.314H1062.76V285.283Z" fill="#4D0063"/>
<path d="M1069.88 285.283H1067.8V359.208H1069.88V285.283Z" fill="#4D0063"/>
<path d="M1077.01 285.283H1074.92V360.485H1077.01V285.283Z" fill="#4D0063"/>
<path d="M1084.13 285.283H1082.05V361.634H1084.13V285.283Z" fill="#4D0063"/>
<path d="M1091.26 285.283H1089.17V361.634H1091.26V285.283Z" fill="#4D0063"/>
<path d="M1098.38 285.283H1096.3V361.634H1098.38V285.283Z" fill="#4D0063"/>
<path d="M1105.33 285.283H1103.25V360.418H1105.33V285.283Z" fill="#4D0063"/>
<path d="M1112.46 285.283H1110.37V359.225H1112.46V285.283Z" fill="#4D0063"/>
<path d="M1119.58 285.283H1117.5V357.288H1119.58V285.283Z" fill="#4D0063"/>
<path d="M1126.71 285.283H1124.62V354.904H1126.71V285.283Z" fill="#4D0063"/>
<path d="M1133.83 285.283H1131.75V351.278H1133.83V285.283Z" fill="#4D0063"/>
<path d="M1140.95 285.283H1138.87V346.509H1140.95V285.283Z" fill="#4D0063"/>
<path d="M1148.08 285.283H1145.99V338.463H1148.08V285.283Z" fill="#4D0063"/>
<path d="M1090.21 324.763C1124.38 324.763 1152.08 308.8 1152.08 289.109C1152.08 269.418 1124.38 253.455 1090.21 253.455C1056.05 253.455 1028.35 269.418 1028.35 289.109C1028.35 308.8 1056.05 324.763 1090.21 324.763Z" fill="url(#paint10_linear_30_3839)"/>
<path d="M1090.21 318.675C1120.06 318.675 1144.26 304.737 1144.26 287.544C1144.26 270.35 1120.06 256.412 1090.21 256.412C1060.37 256.412 1036.17 270.35 1036.17 287.544C1036.17 304.737 1060.37 318.675 1090.21 318.675Z" stroke="#4D0063" stroke-width="1.1865" stroke-miterlimit="10"/>
<path d="M1083.61 268.065L1075.79 263.543L1068.67 267.717L1075.79 271.891L1068.67 276.065L1061.54 271.891L1054.42 276.065L1061.54 280.239L1054.42 284.413L1090.21 305.11L1097.34 300.936L1104.46 305.11L1111.59 300.936L1104.46 296.761L1111.59 292.587L1118.71 296.761L1125.84 292.587L1118.02 288.065C1120.28 285.457 1119.93 282.326 1117.5 279.891C1114.89 277.456 1110.37 275.717 1105.33 275.717C1105.16 272.76 1102.38 270.152 1098.03 268.586C1093.52 267.021 1088.13 266.847 1083.61 268.065ZM1068.67 284.239L1086.57 273.978C1088.48 272.76 1091.78 272.76 1093.69 273.978C1095.6 275.195 1095.6 276.935 1093.69 278.152L1075.79 288.413L1068.67 284.239ZM1107.94 286.326L1090.04 296.588L1082.92 292.413L1100.81 282.152C1102.73 280.935 1106.03 280.935 1107.94 282.152C1110.02 283.37 1110.02 285.109 1107.94 286.326Z" fill="white"/>
<path d="M1028.35 267.195L1151.9 268.239V285.457C1151.9 294.674 1145.82 303.718 1133.83 310.675C1109.68 324.589 1070.58 324.589 1046.43 310.675C1034.44 303.718 1028.35 294.5 1028.35 285.457V267.195Z" fill="url(#paint11_linear_30_3839)"/>
<path d="M1034.44 264.934H1032.35V323.023H1034.44V264.934Z" fill="#4D0063"/>
<path d="M1041.56 264.934H1039.47V323.023H1041.56V264.934Z" fill="#4D0063"/>
<path d="M1048.51 264.934H1046.43V323.023H1048.51V264.934Z" fill="#4D0063"/>
<path d="M1055.64 264.934H1053.55V323.023H1055.64V264.934Z" fill="#4D0063"/>
<path d="M1062.76 264.934H1060.67V323.023H1062.76V264.934Z" fill="#4D0063"/>
<path d="M1069.88 264.934H1067.8V323.023H1069.88V264.934Z" fill="#4D0063"/>
<path d="M1077.01 264.934H1074.92V323.023H1077.01V264.934Z" fill="#4D0063"/>
<path d="M1084.13 264.934H1082.05V323.023H1084.13V264.934Z" fill="#4D0063"/>
<path d="M1091.26 264.934H1089.17V323.023H1091.26V264.934Z" fill="#4D0063"/>
<path d="M1098.38 264.934H1096.3V323.023H1098.38V264.934Z" fill="#4D0063"/>
<path d="M1105.33 264.934H1103.25V323.023H1105.33V264.934Z" fill="#4D0063"/>
<path d="M1112.46 264.934H1110.37V323.023H1112.46V264.934Z" fill="#4D0063"/>
<path d="M1119.58 264.934H1117.5V323.023H1119.58V264.934Z" fill="#4D0063"/>
<path d="M1126.71 264.934H1124.62V323.023H1126.71V264.934Z" fill="#4D0063"/>
<path d="M1133.83 264.934H1131.75V323.023H1133.83V264.934Z" fill="#4D0063"/>
<path d="M1140.95 264.934H1138.87V323.023H1140.95V264.934Z" fill="#4D0063"/>
<path d="M1148.08 264.934H1145.99V323.023H1148.08V264.934Z" fill="#4D0063"/>
<path d="M1090.21 304.414C1124.38 304.414 1152.08 288.451 1152.08 268.76C1152.08 249.069 1124.38 233.107 1090.21 233.107C1056.05 233.107 1028.35 249.069 1028.35 268.76C1028.35 288.451 1056.05 304.414 1090.21 304.414Z" fill="url(#paint12_linear_30_3839)"/>
<path d="M1128.27 289.283C1107.24 301.457 1073.01 301.457 1051.99 289.283C1030.96 277.109 1030.96 257.282 1051.99 245.107C1073.01 232.933 1107.24 232.933 1128.27 245.107C1149.47 257.282 1149.47 277.109 1128.27 289.283Z" stroke="#4D0063" stroke-width="1.1865" stroke-miterlimit="10"/>
<path d="M1083.61 247.89L1075.79 243.368L1068.67 247.542L1075.79 251.716L1068.67 255.89L1061.54 251.716L1054.42 255.89L1061.54 260.064L1054.42 264.238L1090.21 284.935L1097.34 280.761L1104.46 284.935L1111.59 280.761L1104.46 276.587L1111.59 272.413L1118.71 276.587L1125.84 272.413L1118.02 267.891C1120.28 265.282 1119.93 262.151 1117.5 259.717C1114.89 257.282 1110.37 255.542 1105.33 255.542C1105.16 252.586 1102.38 249.977 1098.03 248.412C1093.52 246.673 1088.13 246.499 1083.61 247.89ZM1068.67 263.891L1086.57 253.629C1088.48 252.412 1091.78 252.412 1093.69 253.629C1095.6 254.847 1095.6 256.586 1093.69 257.803L1075.79 268.065L1068.67 263.891ZM1107.94 265.978L1090.04 276.239L1082.92 272.065L1100.81 261.804C1102.73 260.586 1106.03 260.586 1107.94 261.804C1110.02 263.021 1110.02 264.934 1107.94 265.978Z" fill="white"/>
<path d="M1028.35 246.846L1151.9 247.89V265.108C1151.9 274.326 1145.82 283.37 1133.83 290.326C1109.68 304.24 1070.58 304.24 1046.43 290.326C1034.44 283.37 1028.35 274.152 1028.35 265.108V246.846Z" fill="url(#paint13_linear_30_3839)"/>
<path d="M1034.44 244.759H1032.35V302.849H1034.44V244.759Z" fill="#4D0063"/>
<path d="M1041.56 244.759H1039.47V302.849H1041.56V244.759Z" fill="#4D0063"/>
<path d="M1048.51 244.759H1046.43V302.849H1048.51V244.759Z" fill="#4D0063"/>
<path d="M1055.64 244.759H1053.55V302.849H1055.64V244.759Z" fill="#4D0063"/>
<path d="M1062.76 244.759H1060.67V302.849H1062.76V244.759Z" fill="#4D0063"/>
<path d="M1069.88 244.759H1067.8V302.849H1069.88V244.759Z" fill="#4D0063"/>
<path d="M1077.01 244.759H1074.92V302.849H1077.01V244.759Z" fill="#4D0063"/>
<path d="M1084.13 244.759H1082.05V302.849H1084.13V244.759Z" fill="#4D0063"/>
<path d="M1091.26 244.759H1089.17V302.849H1091.26V244.759Z" fill="#4D0063"/>
<path d="M1098.38 244.759H1096.3V302.849H1098.38V244.759Z" fill="#4D0063"/>
<path d="M1105.33 244.759H1103.25V302.849H1105.33V244.759Z" fill="#4D0063"/>
<path d="M1112.46 244.759H1110.37V302.849H1112.46V244.759Z" fill="#4D0063"/>
<path d="M1119.58 244.759H1117.5V302.849H1119.58V244.759Z" fill="#4D0063"/>
<path d="M1126.71 244.759H1124.62V302.849H1126.71V244.759Z" fill="#4D0063"/>
<path d="M1133.83 244.759H1131.74V302.849H1133.83V244.759Z" fill="#4D0063"/>
<path d="M1140.95 244.759H1138.87V302.849H1140.95V244.759Z" fill="#4D0063"/>
<path d="M1148.08 244.759H1145.99V302.849H1148.08V244.759Z" fill="#4D0063"/>
<path d="M1133.83 273.804C1109.68 287.718 1070.58 287.718 1046.43 273.804C1022.27 259.89 1022.27 237.281 1046.43 223.367C1070.58 209.454 1109.68 209.454 1133.83 223.367C1157.98 237.281 1157.98 259.89 1133.83 273.804Z" fill="url(#paint14_linear_30_3839)"/>
<path d="M1090.21 277.978C1120.06 277.978 1144.26 264.04 1144.26 246.846C1144.26 229.653 1120.06 215.715 1090.21 215.715C1060.37 215.715 1036.17 229.653 1036.17 246.846C1036.17 264.04 1060.37 277.978 1090.21 277.978Z" stroke="#4D0063" stroke-width="1.1865" stroke-miterlimit="10"/>
<path d="M1083.61 227.541L1075.79 223.019L1068.67 227.193L1075.79 231.368L1068.67 235.542L1061.54 231.368L1054.42 235.542L1061.54 239.716L1054.42 243.89L1090.21 264.586L1097.34 260.412L1104.46 264.586L1111.59 260.412L1104.46 256.238L1111.59 252.064L1118.71 256.238L1125.84 252.064L1118.02 247.542C1120.28 244.933 1119.93 241.803 1117.5 239.368C1114.89 236.933 1110.37 235.194 1105.33 235.194C1105.16 232.237 1102.38 229.628 1098.03 228.063C1093.52 226.324 1088.13 226.324 1083.61 227.541ZM1068.67 243.716L1086.57 233.455C1088.48 232.237 1091.78 232.237 1093.69 233.455C1095.6 234.672 1095.6 236.411 1093.69 237.629L1075.79 247.89L1068.67 243.716ZM1107.94 245.803L1090.04 256.064L1082.92 251.89L1100.81 241.629C1102.73 240.411 1106.03 240.411 1107.94 241.629C1110.02 242.672 1110.02 244.585 1107.94 245.803Z" fill="white"/>
<path d="M1028.35 226.672L1151.9 227.715V244.933C1151.9 254.151 1145.82 263.195 1133.83 270.152C1109.68 284.065 1070.58 284.065 1046.43 270.152C1034.44 263.195 1028.35 253.977 1028.35 244.933V226.672Z" fill="url(#paint15_linear_30_3839)"/>
<path d="M1034.44 224.411H1032.35V282.5H1034.44V224.411Z" fill="#4D0063"/>
<path d="M1041.56 224.411H1039.47V282.5H1041.56V224.411Z" fill="#4D0063"/>
<path d="M1048.51 224.411H1046.43V282.5H1048.51V224.411Z" fill="#4D0063"/>
<path d="M1055.64 224.411H1053.55V282.5H1055.64V224.411Z" fill="#4D0063"/>
<path d="M1062.76 224.411H1060.67V282.5H1062.76V224.411Z" fill="#4D0063"/>
<path d="M1069.88 224.411H1067.8V282.5H1069.88V224.411Z" fill="#4D0063"/>
<path d="M1077.01 224.411H1074.92V282.5H1077.01V224.411Z" fill="#4D0063"/>
<path d="M1084.13 224.411H1082.05V282.5H1084.13V224.411Z" fill="#4D0063"/>
<path d="M1091.26 224.411H1089.17V282.5H1091.26V224.411Z" fill="#4D0063"/>
<path d="M1098.38 224.411H1096.3V282.5H1098.38V224.411Z" fill="#4D0063"/>
<path d="M1105.33 224.411H1103.25V282.5H1105.33V224.411Z" fill="#4D0063"/>
<path d="M1112.46 224.411H1110.37V282.5H1112.46V224.411Z" fill="#4D0063"/>
<path d="M1119.58 224.411H1117.5V282.5H1119.58V224.411Z" fill="#4D0063"/>
<path d="M1126.71 224.411H1124.62V282.5H1126.71V224.411Z" fill="#4D0063"/>
<path d="M1133.83 224.411H1131.74V282.5H1133.83V224.411Z" fill="#4D0063"/>
<path d="M1140.95 224.411H1138.87V282.5H1140.95V224.411Z" fill="#4D0063"/>
<path d="M1148.08 224.411H1145.99V282.5H1148.08V224.411Z" fill="#4D0063"/>
<path d="M1133.83 253.455C1109.68 267.369 1070.58 267.369 1046.43 253.455C1022.27 239.542 1022.27 216.932 1046.43 203.019C1070.58 189.105 1109.68 189.105 1133.83 203.019C1157.98 216.932 1157.98 239.542 1133.83 253.455Z" fill="url(#paint16_linear_30_3839)"/>
<path d="M1090.21 257.803C1120.06 257.803 1144.26 243.865 1144.26 226.672C1144.26 209.478 1120.06 195.54 1090.21 195.54C1060.37 195.54 1036.17 209.478 1036.17 226.672C1036.17 243.865 1060.37 257.803 1090.21 257.803Z" stroke="#4D0063" stroke-width="1.1865" stroke-miterlimit="10"/>
<path d="M1083.61 207.193L1075.79 202.671L1068.67 206.845L1075.79 211.019L1068.67 215.193L1061.54 211.019L1054.42 215.193L1061.54 219.367L1054.42 223.541L1090.21 244.238L1097.34 240.064L1104.46 244.238L1111.59 240.064L1104.46 235.889L1111.59 231.715L1118.71 235.889L1125.84 231.715L1118.02 227.193C1120.28 224.585 1119.93 221.454 1117.5 219.019C1114.89 216.584 1110.37 214.845 1105.33 214.845C1105.16 211.889 1102.38 209.28 1098.03 207.714C1093.52 206.149 1088.13 205.975 1083.61 207.193ZM1068.67 223.367L1086.57 213.106C1088.48 211.889 1091.78 211.889 1093.69 213.106C1095.6 214.323 1095.6 216.063 1093.69 217.28L1075.79 227.541L1068.67 223.367ZM1107.94 225.454L1090.04 235.716L1082.92 231.541L1100.81 221.28C1102.73 220.063 1106.03 220.063 1107.94 221.28C1110.02 222.498 1110.02 224.237 1107.94 225.454Z" fill="white"/>
<g opacity="0.5">
<path opacity="0.5" d="M1155.9 148.929H1155.55C1155.38 148.929 1155.38 148.756 1155.38 148.756V148.408C1155.38 148.234 1155.55 148.234 1155.55 148.234H1155.9C1156.07 148.234 1156.07 148.408 1156.07 148.408V148.756C1156.07 148.756 1156.07 148.929 1155.9 148.929Z" fill="white"/>
<path opacity="0.5" d="M1152.25 200.41H1151.9C1151.73 200.41 1151.73 200.236 1151.73 200.236V199.888C1151.73 199.714 1151.9 199.714 1151.9 199.714H1152.25C1152.42 199.714 1152.42 199.888 1152.42 199.888V200.236C1152.42 200.236 1152.42 200.41 1152.25 200.41Z" fill="white"/>
<path opacity="0.5" d="M1128.62 189.279H1128.27C1128.1 189.279 1128.1 189.105 1128.1 189.105V188.757C1128.1 188.583 1128.27 188.583 1128.27 188.583H1128.62C1128.79 188.583 1128.79 188.757 1128.79 188.757V188.931C1128.96 189.105 1128.79 189.279 1128.62 189.279Z" fill="white"/>
<path opacity="0.5" d="M1112.8 192.931H1112.46C1112.28 192.931 1112.28 192.757 1112.28 192.757V192.409C1112.28 192.236 1112.46 192.236 1112.46 192.236H1112.8C1112.98 192.236 1112.98 192.409 1112.98 192.409V192.757C1113.15 192.757 1112.98 192.931 1112.8 192.931Z" fill="white"/>
<path opacity="0.5" d="M1104.64 176.583L1104.29 176.409C1104.12 176.409 1104.12 176.235 1104.12 176.061L1104.29 175.713C1104.29 175.539 1104.46 175.539 1104.64 175.539L1104.99 175.713C1105.16 175.713 1105.16 175.887 1105.16 176.061L1104.99 176.409C1104.99 176.583 1104.81 176.583 1104.64 176.583Z" fill="white"/>
<path opacity="0.5" d="M1092.13 207.714L1091.78 207.541C1091.6 207.541 1091.6 207.367 1091.6 207.193L1091.78 206.845C1091.78 206.671 1091.95 206.671 1092.13 206.671L1092.47 206.845C1092.65 206.845 1092.65 207.019 1092.65 207.193L1092.47 207.541C1092.47 207.714 1092.3 207.714 1092.13 207.714Z" fill="white"/>
<path opacity="0.5" d="M1073.19 162.843L1072.84 162.669C1072.66 162.669 1072.66 162.495 1072.66 162.321L1072.84 161.973C1072.84 161.8 1073.01 161.8 1073.19 161.8L1073.53 161.973C1073.71 161.973 1073.71 162.147 1073.71 162.321L1073.53 162.669C1073.36 162.843 1073.19 162.843 1073.19 162.843Z" fill="white"/>
<path opacity="0.5" d="M1041.21 176.931L1040.86 176.757C1040.69 176.757 1040.69 176.583 1040.69 176.409L1040.86 176.061C1040.86 175.887 1041.04 175.887 1041.21 175.887L1041.56 176.061C1041.73 176.061 1041.73 176.235 1041.73 176.409L1041.56 176.757C1041.39 176.931 1041.39 177.105 1041.21 176.931Z" fill="white"/>
<path opacity="0.5" d="M1056.85 223.715L1056.5 223.541C1056.33 223.541 1056.33 223.367 1056.33 223.193L1056.5 222.845C1056.5 222.672 1056.68 222.672 1056.85 222.672L1057.2 222.845C1057.37 222.845 1057.37 223.019 1057.37 223.193L1057.2 223.541C1057.03 223.715 1057.03 223.889 1056.85 223.715Z" fill="white"/>
<path opacity="0.5" d="M1062.76 191.888L1062.41 191.714C1062.24 191.714 1062.24 191.54 1062.24 191.366L1062.41 191.018C1062.41 190.844 1062.59 190.844 1062.76 190.844L1063.11 191.018C1063.28 191.018 1063.28 191.192 1063.28 191.366L1063.11 191.714C1063.11 191.888 1062.93 191.888 1062.76 191.888Z" fill="white"/>
<path opacity="0.5" d="M1041.21 153.277L1040.86 153.104C1040.69 153.104 1040.69 152.93 1040.69 152.756L1040.86 152.408C1040.86 152.234 1041.04 152.234 1041.21 152.234L1041.56 152.408C1041.73 152.408 1041.73 152.582 1041.73 152.756L1041.56 153.104C1041.39 153.277 1041.39 153.277 1041.21 153.277Z" fill="white"/>
<path opacity="0.5" d="M1015.84 184.409L1015.49 184.235C1015.32 184.235 1015.32 184.061 1015.32 183.887L1015.49 183.54C1015.49 183.366 1015.67 183.366 1015.84 183.366L1016.19 183.54C1016.36 183.54 1016.36 183.713 1016.36 183.887L1016.19 184.235C1016.19 184.409 1016.02 184.409 1015.84 184.409Z" fill="white"/>
<path opacity="0.5" d="M1015.84 160.756L1015.49 160.582C1015.32 160.582 1015.32 160.408 1015.32 160.234L1015.49 159.886C1015.49 159.713 1015.67 159.712 1015.84 159.712L1016.19 159.886C1016.36 159.886 1016.36 160.06 1016.36 160.234L1016.19 160.582C1016.19 160.756 1016.02 160.756 1015.84 160.756Z" fill="white"/>
<path opacity="0.5" d="M1171.71 176.583L1171.36 176.409C1171.19 176.409 1171.19 176.235 1171.19 176.061L1171.36 175.713C1171.36 175.539 1171.54 175.539 1171.71 175.539L1172.06 175.713C1172.23 175.713 1172.23 175.887 1172.23 176.061L1172.06 176.409C1171.88 176.583 1171.71 176.583 1171.71 176.583Z" fill="white"/>
<path opacity="0.5" d="M1173.8 160.756L1173.45 160.582C1173.28 160.582 1173.28 160.408 1173.28 160.234L1173.45 159.886C1173.45 159.713 1173.62 159.712 1173.8 159.712L1174.14 159.886C1174.32 159.886 1174.32 160.06 1174.32 160.234L1174.14 160.582C1173.97 160.756 1173.8 160.756 1173.8 160.756Z" fill="white"/>
<path opacity="0.5" d="M1142.69 183.192L1142.34 183.018C1142.17 183.018 1142.17 182.844 1142.17 182.67L1142.34 182.322C1142.34 182.148 1142.52 182.148 1142.69 182.148L1143.04 182.322C1143.21 182.322 1143.21 182.496 1143.21 182.67L1143.04 183.018C1142.87 183.018 1142.69 183.192 1142.69 183.192Z" fill="white"/>
<path opacity="0.5" d="M1129.66 155.538L1129.31 155.365C1129.14 155.365 1129.14 155.191 1129.14 155.017L1129.31 154.669C1129.31 154.495 1129.49 154.495 1129.66 154.495L1130.01 154.669C1130.18 154.669 1130.18 154.843 1130.18 155.017L1130.01 155.365C1129.83 155.538 1129.66 155.538 1129.66 155.538Z" fill="white"/>
<path opacity="0.5" d="M1095.08 235.889H1094.73C1094.56 235.889 1094.56 235.716 1094.56 235.716V235.368C1094.56 235.194 1094.73 235.194 1094.73 235.194H1095.08C1095.25 235.194 1095.25 235.368 1095.25 235.368V235.716C1095.25 235.889 1095.25 235.889 1095.08 235.889Z" fill="white"/>
<path opacity="0.5" d="M1134.53 210.323L1134.18 210.149C1134 210.149 1134 209.975 1134 209.801L1134.18 209.454C1134.18 209.28 1134.35 209.28 1134.53 209.28L1134.87 209.454C1135.05 209.454 1135.05 209.628 1135.05 209.801L1134.87 210.149C1134.87 210.323 1134.7 210.323 1134.53 210.323Z" fill="white"/>
<path opacity="0.5" d="M1041.91 197.627L1041.56 197.453C1041.39 197.453 1041.39 197.279 1041.39 197.105L1041.56 196.757C1041.56 196.584 1041.73 196.584 1041.91 196.584L1042.25 196.757C1042.43 196.757 1042.43 196.931 1042.43 197.105L1042.25 197.453C1042.25 197.627 1042.08 197.627 1041.91 197.627Z" fill="white"/>
<path opacity="0.5" d="M1110.37 226.15L1110.02 225.976C1109.85 225.976 1109.85 225.802 1109.85 225.628L1110.02 225.28C1110.02 225.106 1110.2 225.106 1110.37 225.106L1110.72 225.28C1110.89 225.28 1110.89 225.454 1110.89 225.628L1110.72 225.976C1110.55 226.15 1110.37 226.15 1110.37 226.15Z" fill="white"/>
<path opacity="0.5" d="M1118.37 166.321L1118.02 166.148C1117.84 166.148 1117.84 165.974 1117.84 165.8L1118.02 165.452C1118.02 165.278 1118.19 165.278 1118.37 165.278L1118.71 165.452C1118.89 165.452 1118.89 165.626 1118.89 165.8L1118.71 166.148C1118.54 166.321 1118.54 166.495 1118.37 166.321Z" fill="white"/>
</g>
<g opacity="0.5">
<path opacity="0.5" d="M1110.72 63.1869H1110.37C1110.2 63.1869 1110.2 63.013 1110.2 63.013V62.6652C1110.2 62.4912 1110.37 62.4912 1110.37 62.4912H1110.72C1110.89 62.4912 1110.89 62.6652 1110.89 62.6652V63.013C1110.89 63.1869 1110.72 63.1869 1110.72 63.1869Z" fill="white"/>
<path opacity="0.5" d="M1106.9 114.841H1106.55C1106.37 114.841 1106.38 114.667 1106.38 114.667V114.145C1106.38 113.972 1106.55 113.972 1106.55 113.972H1106.9C1107.07 113.972 1107.07 114.145 1107.07 114.145V114.493C1107.24 114.667 1107.07 114.841 1106.9 114.841Z" fill="white"/>
<path opacity="0.5" d="M1085 88.9271H1084.65C1084.48 88.9271 1084.48 88.7531 1084.48 88.7531V88.4053C1084.48 88.2314 1084.65 88.2314 1084.65 88.2314H1085C1085.18 88.2314 1085.18 88.4053 1085.18 88.4053V88.7531L1085 88.9271Z" fill="white"/>
<path opacity="0.5" d="M1067.62 107.189H1067.28C1067.1 107.189 1067.1 107.015 1067.1 107.015V106.667C1067.1 106.493 1067.28 106.493 1067.28 106.493H1067.62C1067.8 106.493 1067.8 106.667 1067.8 106.667V107.015C1067.8 107.189 1067.62 107.189 1067.62 107.189Z" fill="white"/>
<path opacity="0.5" d="M1053.03 75.0135L1052.68 74.8396C1052.51 74.8396 1052.51 74.6657 1052.51 74.4917L1052.68 74.1439C1052.68 73.97 1052.85 73.97 1053.03 73.97L1053.38 74.1439C1053.55 74.1439 1053.55 74.3178 1053.55 74.4917L1053.38 74.8396C1053.2 75.0135 1053.2 75.1874 1053.03 75.0135Z" fill="white"/>
<path opacity="0.5" d="M1046.95 122.146L1046.6 121.972C1046.43 121.972 1046.43 121.798 1046.43 121.624L1046.6 121.276C1046.6 121.102 1046.77 121.102 1046.95 121.102L1047.29 121.276C1047.47 121.276 1047.47 121.45 1047.47 121.624L1047.29 121.972C1047.12 122.146 1047.12 122.146 1046.95 122.146Z" fill="white"/>
<path opacity="0.5" d="M1027.83 77.2744L1027.48 77.1005C1027.31 77.1005 1027.31 76.9266 1027.31 76.7527L1027.48 76.4048C1027.48 76.2309 1027.66 76.2309 1027.83 76.2309L1028.18 76.4048C1028.35 76.4048 1028.35 76.5787 1028.35 76.7527L1028.18 77.1005C1028.01 77.2744 1028.01 77.2744 1027.83 77.2744Z" fill="white"/>
<path opacity="0.5" d="M1011.67 138.146L1011.32 137.973C1011.15 137.973 1011.15 137.799 1011.15 137.625L1011.32 137.277C1011.32 137.103 1011.5 137.103 1011.67 137.103L1012.02 137.277C1012.19 137.277 1012.19 137.451 1012.19 137.625L1012.02 137.973C1011.85 138.146 1011.67 138.146 1011.67 138.146Z" fill="white"/>
<path opacity="0.5" d="M1017.58 106.145L1017.23 105.971C1017.06 105.971 1017.06 105.797 1017.06 105.623L1017.23 105.276C1017.23 105.102 1017.41 105.102 1017.58 105.102L1017.93 105.276C1018.1 105.276 1018.1 105.449 1018.1 105.623L1017.93 105.971C1017.75 106.145 1017.75 106.319 1017.58 106.145Z" fill="white"/>
<path opacity="0.5" d="M1126.36 90.8402L1126.01 90.6663C1125.84 90.6663 1125.84 90.4924 1125.84 90.3185L1126.01 89.9706C1126.01 89.7967 1126.18 89.7967 1126.36 89.7967L1126.71 89.9706C1126.88 89.9706 1126.88 90.1445 1126.88 90.3185L1126.71 90.6663C1126.71 90.8402 1126.53 91.0141 1126.36 90.8402Z" fill="white"/>
<path opacity="0.5" d="M1140.61 122.668L1140.26 122.494C1140.09 122.494 1140.09 122.32 1140.09 122.146L1140.26 121.798C1140.26 121.624 1140.43 121.624 1140.61 121.624L1140.95 121.798C1141.13 121.798 1141.13 121.972 1141.13 122.146L1140.95 122.494C1140.78 122.668 1140.61 122.841 1140.61 122.668Z" fill="white"/>
<path opacity="0.5" d="M1173.8 119.711L1173.45 119.537C1173.27 119.537 1173.27 119.363 1173.27 119.189L1173.45 118.841C1173.45 118.667 1173.62 118.667 1173.8 118.667L1174.14 118.841C1174.32 118.841 1174.32 119.015 1174.32 119.189L1174.14 119.537C1174.14 119.711 1173.97 119.885 1173.8 119.711Z" fill="white"/>
<path opacity="0.5" d="M1195.87 109.971L1195.52 109.797C1195.34 109.797 1195.34 109.624 1195.34 109.45L1195.52 109.102C1195.52 108.928 1195.69 108.928 1195.87 108.928L1196.21 109.102C1196.39 109.102 1196.39 109.276 1196.39 109.45L1196.21 109.797C1196.04 109.971 1195.87 109.971 1195.87 109.971Z" fill="white"/>
<path opacity="0.5" d="M1049.9 150.321H1049.55C1049.38 150.321 1049.38 150.147 1049.38 150.147V149.799C1049.38 149.625 1049.55 149.625 1049.55 149.625H1049.9C1050.07 149.625 1050.07 149.799 1050.07 149.799V150.147L1049.9 150.321Z" fill="white"/>
<path opacity="0.5" d="M1089.35 124.581L1089 124.407C1088.82 124.407 1088.82 124.233 1088.82 124.059L1089 123.711C1089 123.537 1089.17 123.537 1089.35 123.537L1089.69 123.711C1089.87 123.711 1089.87 123.885 1089.87 124.059L1089.69 124.407C1089.52 124.581 1089.35 124.755 1089.35 124.581Z" fill="white"/>
<path opacity="0.5" d="M996.728 111.885L996.38 111.711C996.207 111.711 996.207 111.537 996.207 111.363L996.38 111.015C996.38 110.841 996.554 110.841 996.728 110.841L997.075 111.015C997.249 111.015 997.249 111.189 997.249 111.363L997.075 111.711C996.902 111.885 996.728 111.885 996.728 111.885Z" fill="white"/>
<path opacity="0.5" d="M1065.02 140.581L1064.67 140.407C1064.5 140.407 1064.5 140.233 1064.5 140.06L1064.67 139.712C1064.67 139.538 1064.84 139.538 1065.02 139.538L1065.37 139.712C1065.54 139.712 1065.54 139.886 1065.54 140.06L1065.37 140.407C1065.19 140.581 1065.19 140.581 1065.02 140.581Z" fill="white"/>
<path opacity="0.5" d="M1104.12 83.1877L1103.77 83.0138C1103.59 83.0138 1103.59 82.8399 1103.59 82.666L1103.77 82.3181C1103.77 82.1442 1103.94 82.1442 1104.12 82.1442L1104.46 82.3181C1104.64 82.3181 1104.64 82.4921 1104.64 82.666L1104.46 83.0138C1104.29 83.1877 1104.29 83.1877 1104.12 83.1877Z" fill="white"/>
</g>
<path opacity="0.8" d="M1133.83 253.803C1109.85 267.717 1070.75 267.717 1046.77 253.803C1034.26 246.499 1028.18 236.933 1028.7 227.367C1013.58 198.671 991.689 171.539 951.375 99.1883C1017.23 23.5331 1120.97 6.48897 1220.89 87.0139C1231.14 95.3621 1160.42 209.106 1151.9 227.367C1152.42 236.933 1146.52 246.673 1133.83 253.803Z" fill="url(#paint17_linear_30_3839)"/>
<defs>
<linearGradient id="paint0_linear_30_3839" x1="1086.6" y1="131.738" x2="1086.6" y2="209.856" gradientUnits="userSpaceOnUse">
<stop offset="0.0873016" stop-color="#EB5757"/>
<stop offset="0.9709" stop-color="#3C53D7"/>
</linearGradient>
<linearGradient id="paint1_linear_30_3839" x1="1080.84" y1="134.936" x2="1080.84" y2="209.345" gradientUnits="userSpaceOnUse">
<stop offset="0.0873016" stop-color="#EB5757"/>
<stop offset="0.9709" stop-color="#3C53D7"/>
</linearGradient>
<linearGradient id="paint2_linear_30_3839" x1="1235.26" y1="397.771" x2="977.353" y2="316.856" gradientUnits="userSpaceOnUse">
<stop stop-color="#000053"/>
<stop offset="0.5425" stop-color="#23007F"/>
<stop offset="1" stop-color="#4F34D7"/>
</linearGradient>
<linearGradient id="paint3_linear_30_3839" x1="1088.52" y1="323.277" x2="1088.52" y2="471.44" gradientUnits="userSpaceOnUse">
<stop offset="0.0873016" stop-color="#EB5757"/>
<stop offset="0.9709" stop-color="#3C53D7"/>
</linearGradient>
<linearGradient id="paint4_linear_30_3839" x1="1041.64" y1="279.493" x2="1152.63" y2="417.797" gradientUnits="userSpaceOnUse">
<stop stop-color="#3C53D7"/>
<stop offset="1" stop-color="#1A1B6E"/>
</linearGradient>
<radialGradient id="paint5_radial_30_3839" cx="0" cy="0" r="1" gradientUnits="userSpaceOnUse" gradientTransform="translate(1087.38 337.686) scale(68.7558 58.0582)">
<stop stop-color="#2F3C9E"/>
<stop offset="0.1211" stop-color="#253184"/>
<stop offset="0.2995" stop-color="#192364"/>
<stop offset="0.4722" stop-color="#11194D"/>
<stop offset="0.635" stop-color="#0C1340"/>
<stop offset="0.7778" stop-color="#0A113B"/>
<stop offset="1" stop-color="#000020"/>
</radialGradient>
<radialGradient id="paint6_radial_30_3839" cx="0" cy="0" r="1" gradientUnits="userSpaceOnUse" gradientTransform="translate(1089.25 335.118) scale(57.8878 48.8811)">
<stop stop-color="#2F3C9E"/>
<stop offset="0.1211" stop-color="#253184"/>
<stop offset="0.2995" stop-color="#192364"/>
<stop offset="0.4722" stop-color="#11194D"/>
<stop offset="0.635" stop-color="#0C1340"/>
<stop offset="0.7778" stop-color="#0A113B"/>
<stop offset="1" stop-color="#000020"/>
</radialGradient>
<linearGradient id="paint7_linear_30_3839" x1="1090.15" y1="329.452" x2="1090.15" y2="382.095" gradientUnits="userSpaceOnUse">
<stop offset="0.0873016" stop-color="#EB5757"/>
<stop offset="0.9709" stop-color="#3C53D7"/>
</linearGradient>
<linearGradient id="paint8_linear_30_3839" x1="1090.23" y1="302.548" x2="1090.23" y2="372.173" gradientUnits="userSpaceOnUse">
<stop offset="0.0873016" stop-color="#EB5757"/>
<stop offset="0.9709" stop-color="#3C53D7"/>
</linearGradient>
<linearGradient id="paint9_linear_30_3839" x1="1090.15" y1="309.277" x2="1090.15" y2="361.92" gradientUnits="userSpaceOnUse">
<stop offset="0.0873016" stop-color="#EB5757"/>
<stop offset="0.9709" stop-color="#3C53D7"/>
</linearGradient>
<linearGradient id="paint10_linear_30_3839" x1="1090.23" y1="282.2" x2="1090.23" y2="351.824" gradientUnits="userSpaceOnUse">
<stop offset="0.0873016" stop-color="#EB5757"/>
<stop offset="0.9709" stop-color="#3C53D7"/>
</linearGradient>
<linearGradient id="paint11_linear_30_3839" x1="1090.15" y1="288.928" x2="1090.15" y2="341.572" gradientUnits="userSpaceOnUse">
<stop offset="0.0873016" stop-color="#EB5757"/>
<stop offset="0.9709" stop-color="#3C53D7"/>
</linearGradient>
<linearGradient id="paint12_linear_30_3839" x1="1090.23" y1="261.851" x2="1090.23" y2="331.476" gradientUnits="userSpaceOnUse">
<stop offset="0.0873016" stop-color="#EB5757"/>
<stop offset="0.9709" stop-color="#3C53D7"/>
</linearGradient>
<linearGradient id="paint13_linear_30_3839" x1="1090.15" y1="268.58" x2="1090.15" y2="321.223" gradientUnits="userSpaceOnUse">
<stop offset="0.0873016" stop-color="#EB5757"/>
<stop offset="0.9709" stop-color="#3C53D7"/>
</linearGradient>
<linearGradient id="paint14_linear_30_3839" x1="1090.15" y1="241.676" x2="1090.15" y2="311.301" gradientUnits="userSpaceOnUse">
<stop offset="0.0873016" stop-color="#EB5757"/>
<stop offset="0.9709" stop-color="#3C53D7"/>
</linearGradient>
<linearGradient id="paint15_linear_30_3839" x1="1090.15" y1="248.405" x2="1090.15" y2="301.048" gradientUnits="userSpaceOnUse">
<stop offset="0.0873016" stop-color="#EB5757"/>
<stop offset="0.9709" stop-color="#3C53D7"/>
</linearGradient>
<linearGradient id="paint16_linear_30_3839" x1="1090.15" y1="221.328" x2="1090.15" y2="290.952" gradientUnits="userSpaceOnUse">
<stop offset="0.0873016" stop-color="#EB5757"/>
<stop offset="0.9709" stop-color="#3C53D7"/>
</linearGradient>
<linearGradient id="paint17_linear_30_3839" x1="1084.49" y1="53.5265" x2="1096.6" y2="277.463" gradientUnits="userSpaceOnUse">
<stop stop-color="#F1EBF9" stop-opacity="0"/>
<stop offset="0.252" stop-color="#F2EEFA" stop-opacity="0"/>
<stop offset="0.2989" stop-color="#F3F0FA" stop-opacity="0"/>
<stop offset="0.4873" stop-color="#EDF9FD" stop-opacity="0.137"/>
<stop offset="0.5741" stop-color="#E9FFFF" stop-opacity="0.2"/>
<stop offset="1" stop-color="#E6FFFF"/>
</linearGradient>
<clipPath id="clip0_30_3839">
<rect width="614" height="309" fill="white" transform="translate(822 199.345)"/>
</clipPath>
</defs>
</svg>
