<svg width="31" height="13" viewBox="0 0 31 13" fill="none" xmlns="http://www.w3.org/2000/svg">
<path d="M6.79468 0.171265L4.79468 4.17126L0.794678 4.67126L3.54801 7.75126L2.79468 12.1713L6.79468 10.1713L10.7947 12.1713L10.048 7.75126L12.7947 4.67126L8.79468 4.17126L6.79468 0.171265ZM6.79468 1.6646L8.35468 4.79126L11.4547 5.17793L9.33468 7.55126L9.91468 10.9846L6.79468 9.4246L3.67468 10.9846L4.25468 7.55126L2.13468 5.17793L5.23468 4.79126L6.79468 1.6646Z" fill="#BDBDBD"/>
<path d="M24.1439 9.16213H28.2519V10.9519H29.2576V9.16213H30.4508V8.22463H29.2576V2.22463H27.9792L24.1439 8.29281V9.16213ZM28.2519 8.22463H25.286V8.15645L28.1837 3.57122H28.2519V8.22463Z" fill="#828282"/>
</svg>
