<svg width="31" height="13" viewBox="0 0 31 13" fill="none" xmlns="http://www.w3.org/2000/svg">
<path d="M6.79468 0.707886L4.79468 4.70789L0.794678 5.20789L3.54801 8.28789L2.79468 12.7079L6.79468 10.7079L10.7947 12.7079L10.048 8.28789L12.7947 5.20789L8.79468 4.70789L6.79468 0.707886ZM6.79468 2.20122L8.35468 5.32789L11.4547 5.71455L9.33468 8.08789L9.91468 11.5212L6.79468 9.96122L3.67468 11.5212L4.25468 8.08789L2.13468 5.71455L5.23468 5.32789L6.79468 2.20122Z" fill="#BDBDBD"/>
<path d="M27.3517 11.6078C29.1159 11.6292 30.2664 10.2996 30.2664 8.67603C30.2664 6.98853 29.0179 5.7783 27.5221 5.7783C26.623 5.7783 25.8517 6.21722 25.3744 6.93739H25.3062C25.3105 4.81097 26.1372 3.57943 27.488 3.57943C28.4085 3.57943 28.9625 4.15898 29.1585 4.94307H30.1983C29.9852 3.58796 28.9539 2.64193 27.488 2.64193C25.5235 2.64193 24.3176 4.38057 24.3176 7.4658C24.3176 10.6917 25.9199 11.5908 27.3517 11.6078ZM27.3517 10.6703C26.2565 10.6703 25.4554 9.7371 25.4596 8.69307C25.4639 7.64904 26.3034 6.7158 27.3858 6.7158C28.4554 6.7158 29.2437 7.59364 29.2437 8.67603C29.2437 9.78398 28.4213 10.6703 27.3517 10.6703Z" fill="#828282"/>
</svg>
