<svg width="31" height="13" viewBox="0 0 31 13" fill="none" xmlns="http://www.w3.org/2000/svg">
<path d="M6.79468 0.634766L4.79468 4.63477L0.794678 5.13477L3.54801 8.21477L2.79468 12.6348L6.79468 10.6348L10.7947 12.6348L10.048 8.21477L12.7947 5.13477L8.79468 4.63477L6.79468 0.634766ZM6.79468 2.1281L8.35468 5.25477L11.4547 5.64143L9.33468 8.01477L9.91468 11.4481L6.79468 9.8881L3.67468 11.4481L4.25468 8.01477L2.13468 5.64143L5.23468 5.25477L6.79468 2.1281Z" fill="#BDBDBD"/>
<path d="M24.5653 11.4154H30.071V10.4779H26.0141V10.4097L27.9744 8.31313C29.4744 6.7066 29.9175 5.9566 29.9175 4.98927C29.9175 3.64268 28.8266 2.56881 27.2925 2.56881C25.7627 2.56881 24.5994 3.60859 24.5994 5.14268H25.605C25.605 4.14978 26.2485 3.48927 27.2585 3.48927C28.2045 3.48927 28.9289 4.06881 28.9289 4.98927C28.9289 5.79467 28.4559 6.39126 27.446 7.49495L24.5653 10.6484V11.4154Z" fill="#828282"/>
</svg>
