<svg width="31" height="13" viewBox="0 0 31 13" fill="none" xmlns="http://www.w3.org/2000/svg">
<path d="M6.79468 0.439575L4.79468 4.43958L0.794678 4.93958L3.54801 8.01958L2.79468 12.4396L6.79468 10.4396L10.7947 12.4396L10.048 8.01958L12.7947 4.93958L8.79468 4.43958L6.79468 0.439575ZM6.79468 1.93291L8.35468 5.05958L11.4547 5.44624L9.33468 7.81958L9.91468 11.2529L6.79468 9.69291L3.67468 11.2529L4.25468 7.81958L2.13468 5.44624L5.23468 5.05958L6.79468 1.93291Z" fill="#BDBDBD"/>
<path d="M27.275 11.3395C28.9369 11.3395 30.1557 10.1123 30.1557 8.44181C30.1557 6.75004 28.9795 5.50999 27.3772 5.50999C26.7892 5.50999 26.2182 5.71879 25.8602 6.00431H25.8091L26.1159 3.43044H29.7636V2.49294H25.2295L24.7011 6.7884L25.6897 6.90771C26.052 6.64777 26.6699 6.46027 27.2068 6.46453C28.319 6.47306 29.1329 7.31681 29.1329 8.45885C29.1329 9.57959 28.3488 10.402 27.275 10.402C26.3801 10.402 25.6684 9.82675 25.5875 9.0384H24.5647C24.6287 10.3679 25.775 11.3395 27.275 11.3395Z" fill="#828282"/>
</svg>
