<svg width="31" height="13" viewBox="0 0 31 13" fill="none" xmlns="http://www.w3.org/2000/svg">
<path d="M6.79468 0.902954L4.79468 4.90295L0.794678 5.40295L3.54801 8.48295L2.79468 12.903L6.79468 10.903L10.7947 12.903L10.048 8.48295L12.7947 5.40295L8.79468 4.90295L6.79468 0.902954ZM6.79468 2.39629L8.35468 5.52295L11.4547 5.90962L9.33468 8.28295L9.91468 11.7163L6.79468 10.1563L3.67468 11.7163L4.25468 8.28295L2.13468 5.90962L5.23468 5.52295L6.79468 2.39629Z" fill="#BDBDBD"/>
<path d="M27.3266 11.8029C29.0184 11.8029 30.2755 10.7418 30.2755 9.31428C30.2755 8.20632 29.6193 7.40092 28.5198 7.21768V7.1495C29.4019 6.88104 29.9516 6.1566 29.9516 5.17223C29.9516 3.93643 28.9758 2.837 27.3607 2.837C25.8522 2.837 24.5994 3.76598 24.5482 5.13814H25.571C25.6093 4.26882 26.436 3.75746 27.3437 3.75746C28.3068 3.75746 28.9289 4.34126 28.9289 5.22337C28.9289 6.14382 28.2087 6.74041 27.1732 6.74041H26.4744V7.67791H27.1732C28.4985 7.67791 29.2357 8.35121 29.2357 9.31428C29.2357 10.239 28.4303 10.8654 27.3096 10.8654C26.2996 10.8654 25.4985 10.3455 25.4346 9.50178H24.3607C24.4246 10.8739 25.6349 11.8029 27.3266 11.8029Z" fill="#828282"/>
</svg>
